<?xml version="1.0" encoding="UTF-8"?>
<svg id="Layer_2" data-name="Layer 2" xmlns="http://www.w3.org/2000/svg" viewBox="0 0 66.4 8.75">
  <defs>
    <style>
      .cls-1 {
        fill: #fff;
      }
    </style>
  </defs>
  <g id="Layer_1-2" data-name="Layer 1">
    <g>
      <path class="cls-1" d="M0,.18h2.63l2.99,3.71V.18h2.78v8.4h-2.49l-3.12-3.87v3.87H0V.18Z"/>
      <path class="cls-1" d="M9.05,4.4v-.02c0-2.43,2-4.38,4.59-4.38s4.57,1.91,4.57,4.35v.02c0,2.43-2,4.38-4.59,4.38s-4.57-1.91-4.57-4.35ZM15.38,4.4v-.02c0-1-.68-1.9-1.76-1.9s-1.74.89-1.74,1.87v.02c0,1,.68,1.9,1.76,1.9s1.74-.89,1.74-1.87Z"/>
      <path class="cls-1" d="M17.71.18h3.14l1.63,4.71L24.12.18h3.09l-3.41,8.46h-2.69L17.71.18Z"/>
      <path class="cls-1" d="M28.45.12h2.78l3.54,8.46h-3.05l-.44-1.13h-2.94l-.43,1.13h-3L28.45.12ZM30.58,5.46l-.77-2.04-.77,2.04h1.54Z"/>
      <path class="cls-1" d="M35,.18h2.93l1.8,2.95,1.8-2.95h2.93v8.4h-2.79v-4.16l-1.93,2.99h-.05l-1.93-2.99v4.16h-2.75V.18Z"/>
      <path class="cls-1" d="M45.32.18h2.81v8.4h-2.81V.18Z"/>
      <path class="cls-1" d="M49,.18h4.1c1.5,0,2.43.37,3.02.96.52.52.77,1.13.77,1.99v.02c0,1.24-.64,2.07-1.66,2.57l1.96,2.85h-3.2l-1.58-2.4h-.6v2.4h-2.81V.18ZM53.01,4.17c.67,0,1.08-.3,1.08-.82v-.02c0-.54-.41-.8-1.07-.8h-1.22v1.64h1.21Z"/>
      <path class="cls-1" d="M60.08.12h2.78l3.54,8.46h-3.05l-.44-1.13h-2.94l-.43,1.13h-3L60.08.12ZM62.22,5.46l-.77-2.04-.77,2.04h1.54Z"/>
    </g>
  </g>
</svg>