<svg xmlns="http://www.w3.org/2000/svg" width="16" height="16" viewBox="0 0 16 16" fill="none"><path d="M1.63867 1.3335C1.43034 1.3335 1.25326 1.40641 1.10742 1.55225C0.961589 1.69808 0.888672 1.87516 0.888672 2.0835C0.888672 2.29183 0.961589 2.46891 1.10742 2.61475C1.25326 2.76058 1.43034 2.8335 1.63867 2.8335H3.0293L4.37305 9.47412C4.4668 9.94287 4.69596 10.3283 5.06055 10.6304C5.42513 10.9325 5.847 11.0835 6.32617 11.0835H13.248C13.5397 11.0835 13.7949 11.0002 14.0137 10.8335C14.2428 10.6564 14.3939 10.4272 14.4668 10.146L15.6074 5.771C15.6387 5.66683 15.6439 5.56787 15.623 5.47412C15.6126 5.36995 15.5762 5.271 15.5137 5.17725C15.4616 5.09391 15.3887 5.021 15.2949 4.9585C15.2116 4.896 15.1178 4.85954 15.0137 4.84912L7.76367 3.59912C7.56575 3.55745 7.37825 3.59912 7.20117 3.72412C7.0345 3.8387 6.93555 4.00016 6.9043 4.2085C6.86263 4.40641 6.89909 4.59391 7.01367 4.771C7.13867 4.93766 7.30534 5.03662 7.51367 5.06787L13.9512 6.17725L13.0605 9.5835H6.32617C6.21159 9.5835 6.10742 9.54704 6.01367 9.47412C5.91992 9.4012 5.86263 9.30225 5.8418 9.17725L4.37305 1.94287C4.3418 1.76579 4.25326 1.61995 4.10742 1.50537C3.97201 1.39079 3.81576 1.3335 3.63867 1.3335H1.63867ZM6.63867 13.8335C6.63867 14.1772 6.51367 14.4741 6.26367 14.7241C6.02409 14.9637 5.73242 15.0835 5.38867 15.0835C5.04492 15.0835 4.74805 14.9637 4.49805 14.7241C4.25846 14.4741 4.13867 14.1772 4.13867 13.8335C4.13867 13.4897 4.25846 13.1981 4.49805 12.9585C4.74805 12.7085 5.04492 12.5835 5.38867 12.5835C5.73242 12.5835 6.02409 12.7085 6.26367 12.9585C6.51367 13.1981 6.63867 13.4897 6.63867 13.8335ZM14.6387 13.8335C14.6387 14.1772 14.5137 14.4741 14.2637 14.7241C14.0241 14.9637 13.7324 15.0835 13.3887 15.0835C13.0449 15.0835 12.748 14.9637 12.498 14.7241C12.2585 14.4741 12.1387 14.1772 12.1387 13.8335C12.1387 13.4897 12.2585 13.1981 12.498 12.9585C12.748 12.7085 13.0449 12.5835 13.3887 12.5835C13.7324 12.5835 14.0241 12.7085 14.2637 12.9585C14.5137 13.1981 14.6387 13.4897 14.6387 13.8335Z" fill="#3E3E3E"></path></svg>