<svg xmlns="http://www.w3.org/2000/svg" width="24" height="24" viewBox="0 0 24 24" fill="none"><path d="M23.0054 7.92187C23.2241 7.70312 23.3335 7.4375 23.3335 7.125C23.3335 6.8125 23.2241 6.54687 23.0054 6.32812C22.7866 6.10937 22.521 6 22.2085 6C21.896 6 21.6304 6.10937 21.4116 6.32812L12.4585 15.2812L3.50537 6.32812C3.28662 6.10937 3.021 6 2.7085 6C2.396 6 2.13037 6.10937 1.91162 6.32812C1.69287 6.54687 1.5835 6.8125 1.5835 7.125C1.5835 7.4375 1.69287 7.70312 1.91162 7.92187L11.6616 17.6719C11.8804 17.8906 12.146 18 12.4585 18C12.771 18 13.0366 17.8906 13.2554 17.6719L23.0054 7.92187Z" fill="#101010" fill-opacity="0.8"></path></svg>