<svg xmlns="http://www.w3.org/2000/svg" width="16" height="16" viewBox="0 0 16 16" fill="none"><g clip-path="url(#clip0_10053_49231)"><path fill-rule="evenodd" clip-rule="evenodd" d="M8 5.33333C7.26965 5.33333 6.62726 5.5966 6.11193 6.11193C5.5966 6.62726 5.33333 7.26965 5.33333 8C5.33333 8.73035 5.5966 9.37274 6.11193 9.88807C6.62726 10.4034 7.26965 10.6667 8 10.6667C8.73035 10.6667 9.37274 10.4034 9.88807 9.88807C10.4034 9.37274 10.6667 8.73035 10.6667 8C10.6667 7.26965 10.4034 6.62726 9.88807 6.11193C9.37274 5.5966 8.73035 5.33333 8 5.33333ZM7.05474 7.05474C7.31718 6.79229 7.61924 6.66667 8 6.66667C8.38076 6.66667 8.68282 6.79229 8.94526 7.05474C9.20771 7.31718 9.33333 7.61924 9.33333 8C9.33333 8.38076 9.20771 8.68282 8.94526 8.94526C8.68282 9.20771 8.38076 9.33333 8 9.33333C7.61924 9.33333 7.31718 9.20771 7.05474 8.94526C6.79229 8.68282 6.66667 8.38076 6.66667 8C6.66667 7.61924 6.79229 7.31718 7.05474 7.05474Z" fill="#3E3E3E"></path><path fill-rule="evenodd" clip-rule="evenodd" d="M7.27869 0C6.86273 0 6.49522 0.161701 6.20619 0.450727C5.91858 0.738334 5.77049 1.10423 5.77049 1.5082V1.98907C5.77049 1.99114 5.77042 1.99473 5.76755 2.00281C5.7647 2.01085 5.75766 2.02711 5.74082 2.05146C5.70679 2.09222 5.65754 2.13304 5.57982 2.16967C5.50731 2.1959 5.44495 2.20356 5.38751 2.19974C5.34596 2.19047 5.32846 2.17664 5.31567 2.16384L4.98507 1.83324C4.69158 1.53975 4.31791 1.39754 3.91257 1.39754C3.50861 1.39754 3.14271 1.54563 2.8551 1.83324L1.83324 2.8551C1.53975 3.14859 1.39754 3.52225 1.39754 3.9276C1.39754 4.33156 1.54563 4.69746 1.83324 4.98507L2.16384 5.31567C2.17042 5.32224 2.17251 5.32611 2.17388 5.32905C2.17549 5.33251 2.18029 5.34393 2.18304 5.3687L2.18505 5.38676L2.18803 5.40468C2.19662 5.45622 2.19394 5.51129 2.16961 5.57985C2.13505 5.65217 2.09354 5.69914 2.04565 5.73426L2.03672 5.7408L2.02801 5.74765C2.00672 5.76438 1.99482 5.76906 1.99249 5.76992L1.99097 5.77041C1.99087 5.77042 1.99085 5.77044 1.99097 5.77041C1.99122 5.77036 1.99074 5.77049 1.98907 5.77049H1.5082C1.09224 5.77049 0.724725 5.93219 0.435699 6.22122C0.148092 6.50883 0 6.87473 0 7.27869V8.72131C0 9.12437 0.146898 9.4874 0.421637 9.77931L0.435483 9.79403L0.450194 9.80787C0.742104 10.0826 1.10514 10.2295 1.5082 10.2295H1.98907C1.99074 10.2295 1.9912 10.2296 1.99095 10.2296C1.9907 10.2295 1.99109 10.2296 1.99249 10.2301C1.99482 10.2309 2.00672 10.2356 2.02801 10.2524L2.03672 10.2592L2.04565 10.2657C2.09354 10.3009 2.13505 10.3478 2.16961 10.4201C2.19394 10.4887 2.19662 10.5438 2.18803 10.5953L2.18505 10.6132L2.18304 10.6313C2.18029 10.6561 2.17549 10.6675 2.17388 10.6709C2.17251 10.6739 2.17042 10.6778 2.16384 10.6843L1.83324 11.0149C1.53975 11.3084 1.39754 11.6821 1.39754 12.0874C1.39754 12.4914 1.54563 12.8573 1.83324 13.1449L2.8551 14.1668C3.14271 14.4544 3.50861 14.6025 3.91257 14.6025C4.31791 14.6025 4.69158 14.4602 4.98507 14.1668L5.31567 13.8362C5.32224 13.8296 5.32611 13.8275 5.32905 13.8261C5.33251 13.8245 5.34393 13.8197 5.3687 13.817L5.38676 13.815L5.40468 13.812C5.45622 13.8034 5.5113 13.8061 5.57986 13.8304C5.65217 13.865 5.69914 13.9065 5.73426 13.9544L5.7408 13.9633L5.74765 13.972C5.76438 13.9933 5.76906 14.0052 5.76992 14.0075C5.77043 14.0089 5.77046 14.0093 5.77041 14.0091C5.77037 14.0088 5.77049 14.0093 5.77049 14.0109V14.4918C5.77049 14.8958 5.91858 15.2617 6.20619 15.5493C6.49522 15.8383 6.86273 16 7.27869 16H8.72131C9.13187 16 9.49666 15.8419 9.77891 15.5494C10.0714 15.2672 10.2295 14.9024 10.2295 14.4918V14.0109C10.2295 14.0093 10.2296 14.0088 10.2296 14.0091C10.2295 14.0093 10.2296 14.0089 10.2301 14.0075C10.2309 14.0052 10.2356 13.9933 10.2524 13.972L10.2592 13.9633L10.2657 13.9544C10.3009 13.9065 10.3478 13.865 10.4201 13.8304C10.4887 13.8061 10.5438 13.8034 10.5953 13.812L10.6132 13.815L10.6313 13.817C10.6561 13.8197 10.6675 13.8245 10.6709 13.8261C10.6739 13.8275 10.6778 13.8296 10.6843 13.8362L11.0149 14.1668C11.3025 14.4544 11.6684 14.6025 12.0724 14.6025C12.4778 14.6025 12.8514 14.4602 13.1449 14.1668L14.1668 13.1449C14.4544 12.8573 14.6025 12.4914 14.6025 12.0874C14.6025 11.6821 14.4602 11.3084 14.1668 11.0149L13.8362 10.6843C13.8234 10.6715 13.8095 10.654 13.8003 10.6125C13.7964 10.555 13.8041 10.4927 13.8303 10.4202C13.867 10.3425 13.9078 10.2932 13.9485 10.2592C13.9729 10.2423 13.9891 10.2353 13.9972 10.2325C14.0053 10.2296 14.0089 10.2295 14.0109 10.2295H14.4918C14.8958 10.2295 15.2617 10.0814 15.5493 9.79381C15.8383 9.50478 16 9.13727 16 8.72131V7.27869C16 6.86813 15.8419 6.50334 15.5494 6.22109C15.2672 5.92855 14.9024 5.77049 14.4918 5.77049H14.0109C14.0089 5.77049 14.0053 5.77042 13.9972 5.76755C13.9891 5.7647 13.9729 5.75766 13.9485 5.74082C13.9078 5.70679 13.867 5.65754 13.8303 5.57983C13.8041 5.50731 13.7964 5.44495 13.8003 5.38751C13.8095 5.34596 13.8234 5.32846 13.8362 5.31567L14.1668 4.98507C14.4544 4.69746 14.6025 4.33156 14.6025 3.9276C14.6025 3.52225 14.4602 3.14859 14.1668 2.8551L13.1449 1.83324C12.8514 1.53975 12.4778 1.39754 12.0724 1.39754C11.6684 1.39754 11.3025 1.54563 11.0149 1.83324L10.6843 2.16384C10.6715 2.17664 10.654 2.19047 10.6125 2.19974C10.5551 2.20356 10.4927 2.1959 10.4202 2.16967C10.3425 2.13304 10.2932 2.09222 10.2592 2.05147C10.2423 2.02711 10.2353 2.01085 10.2325 2.00281C10.2296 1.99473 10.2295 1.99114 10.2295 1.98907V1.5082C10.2295 1.09764 10.0714 0.732848 9.77891 0.450598C9.49666 0.158061 9.13187 0 8.72131 0H7.27869ZM7.149 1.39354C7.20059 1.34194 7.23381 1.33333 7.27869 1.33333H8.72131C8.76481 1.33333 8.78546 1.34031 8.82191 1.37904L8.83576 1.39375L8.85047 1.4076C8.8892 1.44405 8.89618 1.4647 8.89618 1.5082V1.98907C8.89618 2.3133 9.01061 2.6038 9.19054 2.84916L9.19709 2.85809L9.20393 2.8668C9.38818 3.1013 9.6243 3.27522 9.89318 3.39473L9.9076 3.40114L9.9223 3.40686C10.196 3.5133 10.4843 3.55594 10.7785 3.52324L10.7966 3.52124L10.8145 3.51825C11.121 3.46717 11.4011 3.33265 11.6271 3.10665L11.9577 2.77605C11.9907 2.74307 12.0155 2.73087 12.0724 2.73087C12.1479 2.73087 12.175 2.74895 12.2021 2.77605L13.224 3.79791C13.251 3.825 13.2691 3.85207 13.2691 3.9276C13.2691 3.98447 13.2569 4.00928 13.224 4.04226L12.8934 4.37286C12.6673 4.59886 12.5328 4.879 12.4817 5.18548L12.4788 5.2034L12.4768 5.22146C12.4441 5.51572 12.4867 5.80399 12.5931 6.0777L12.5989 6.0924L12.6053 6.10683C12.7248 6.37571 12.8987 6.61182 13.1332 6.79607L13.1419 6.80291L13.1508 6.80946C13.3962 6.9894 13.6867 7.10383 14.0109 7.10383H14.4918C14.5353 7.10383 14.556 7.1108 14.5924 7.14953L14.6062 7.16424L14.621 7.17809C14.6597 7.21454 14.6667 7.23519 14.6667 7.27869V8.72131C14.6667 8.76619 14.6581 8.79941 14.6065 8.851C14.5735 8.88398 14.5487 8.89618 14.4918 8.89618H14.0109C13.6867 8.89618 13.3962 9.01061 13.1508 9.19054L13.1419 9.19709L13.1332 9.20393C12.8987 9.38818 12.7248 9.6243 12.6053 9.89318L12.5989 9.9076L12.5931 9.9223C12.4867 10.196 12.4441 10.4843 12.4768 10.7785L12.4788 10.7966L12.4817 10.8145C12.5328 11.121 12.6673 11.4011 12.8934 11.6271L13.224 11.9577C13.251 11.9848 13.2691 12.0119 13.2691 12.0874C13.2691 12.1443 13.2569 12.1691 13.224 12.2021L12.2021 13.224C12.175 13.251 12.1479 13.2691 12.0724 13.2691C12.0155 13.2691 11.9907 13.2569 11.9577 13.224L11.6271 12.8934C11.3969 12.6631 11.1096 12.5324 10.7968 12.4939C10.4973 12.4473 10.202 12.4844 9.9223 12.5931L9.9076 12.5989L9.89318 12.6053C9.61648 12.7283 9.37917 12.912 9.19703 13.1571C9.00967 13.399 8.89618 13.6883 8.89618 14.0109V14.4918C8.89618 14.5353 8.8892 14.556 8.85047 14.5924L8.83576 14.6062L8.82191 14.621C8.78546 14.6597 8.76481 14.6667 8.72131 14.6667H7.27869C7.23381 14.6667 7.20059 14.6581 7.149 14.6065C7.11602 14.5735 7.10383 14.5487 7.10383 14.4918V14.0109C7.10383 13.6883 6.99034 13.399 6.80298 13.1571C6.62084 12.912 6.38353 12.7283 6.10683 12.6053L6.0924 12.5989L6.0777 12.5931C5.79799 12.4844 5.50267 12.4473 5.20323 12.4939C4.89036 12.5324 4.60312 12.6631 4.37286 12.8934L4.04226 13.224C4.01516 13.251 3.9881 13.2691 3.91257 13.2691C3.85569 13.2691 3.83088 13.2569 3.79791 13.224L2.77605 12.2021C2.74307 12.1691 2.73087 12.1443 2.73087 12.0874C2.73087 12.0119 2.74895 11.9848 2.77605 11.9577L3.10665 11.6271C3.33691 11.3969 3.46763 11.1096 3.50608 10.7968C3.55271 10.4973 3.51563 10.202 3.40686 9.9223L3.40114 9.9076L3.39473 9.89318C3.27175 9.61649 3.08805 9.37919 2.84295 9.19705C2.60103 9.00967 2.3117 8.89618 1.98907 8.89618H1.5082C1.45652 8.89618 1.42091 8.88546 1.37911 8.8504C1.34405 8.8086 1.33333 8.77299 1.33333 8.72131V7.27869C1.33333 7.22181 1.34553 7.197 1.37851 7.16403C1.4301 7.11243 1.46332 7.10383 1.5082 7.10383H1.98907C2.3117 7.10383 2.60101 6.99034 2.84293 6.80297C3.08804 6.62083 3.27175 6.38352 3.39473 6.10683L3.40114 6.0924L3.40686 6.0777C3.51563 5.79799 3.55271 5.50266 3.50608 5.20322C3.46763 4.89036 3.33691 4.60312 3.10665 4.37286L2.77605 4.04226C2.74307 4.00928 2.73087 3.98447 2.73087 3.9276C2.73087 3.85207 2.74895 3.825 2.77605 3.79791L3.79791 2.77605C3.83088 2.74307 3.85569 2.73087 3.91257 2.73087C3.9881 2.73087 4.01516 2.74895 4.04226 2.77605L4.37286 3.10665C4.59886 3.33265 4.879 3.46717 5.18548 3.51825L5.2034 3.52124L5.22146 3.52324C5.51572 3.55594 5.80399 3.5133 6.0777 3.40686L6.0924 3.40114L6.10683 3.39473C6.37571 3.27522 6.61182 3.1013 6.79607 2.8668L6.80291 2.85809L6.80946 2.84916C6.9894 2.6038 7.10383 2.3133 7.10383 1.98907V1.5082C7.10383 1.45132 7.11602 1.42651 7.149 1.39354Z" fill="#3E3E3E"></path></g><defs><clipPath id="clip0_10053_49231"><rect width="16" height="16" fill="white"></rect></clipPath></defs></svg>