<svg xmlns="http://www.w3.org/2000/svg" width="24" height="24" viewBox="0 0 24 24" fill="none"><g clip-path="url(#clip0_9058_37944)"><path d="M5.5 2.5C5.5 1.11929 6.61929 0 8 0C9.38071 0 10.5 1.11929 10.5 2.5C10.5 3.88071 9.38071 5 8 5C6.61929 5 5.5 3.88071 5.5 2.5Z" fill="#101010" fill-opacity="0.5"></path><path d="M9 7C9 6.44772 8.55229 6 8 6C7.44772 6 7 6.44772 7 7V15C7 15.5523 7.44772 16 8 16H13.5858L17.2929 19.7071C17.6834 20.0976 18.3166 20.0976 18.7071 19.7071C19.0976 19.3166 19.0976 18.6834 18.7071 18.2929L14.4142 14H9V10H14C14.5523 10 15 9.55228 15 9C15 8.44772 14.5523 8 14 8H9V7Z" fill="#101010" fill-opacity="0.5"></path><path d="M0 16.0005C0 12.6431 2.06817 9.76881 5 8.58203V10.8032C3.2066 11.8406 2 13.7797 2 16.0005C2 19.3142 4.68629 22.0005 8 22.0005C10.4333 22.0005 12.5282 20.5521 13.4697 18.4704L14.9553 19.956C13.5785 22.3717 10.9795 24.0005 8 24.0005C3.58172 24.0005 0 20.4188 0 16.0005Z" fill="#101010" fill-opacity="0.5"></path><path fill-rule="evenodd" clip-rule="evenodd" d="M18 0C17.4477 0 17 0.447715 17 1V10C17 10.5523 17.4477 11 18 11C18.5523 11 19 10.5523 19 10V7H20.5C22.433 7 24 5.433 24 3.5C24 1.567 22.433 0 20.5 0H18ZM20.5 5H19V2H20.5C21.3284 2 22 2.67157 22 3.5C22 4.32843 21.3284 5 20.5 5Z" fill="#101010" fill-opacity="0.5"></path></g><defs><clipPath id="clip0_9058_37944"><rect width="24" height="24" fill="white"></rect></clipPath></defs></svg>