<svg xmlns="http://www.w3.org/2000/svg" width="25" height="24" viewBox="0 0 25 24" fill="none"><g clip-path="url(#clip0_9058_37955)"><path d="M11.667 0C10.2863 0 9.16699 1.11929 9.16699 2.5C9.16699 3.88071 10.2863 5 11.667 5C13.0477 5 14.167 3.88071 14.167 2.5C14.167 1.11929 13.0477 0 11.667 0Z" fill="#101010" fill-opacity="0.5"></path><path d="M11.667 6C12.2193 6 12.667 6.44772 12.667 7V8H17.667C18.2193 8 18.667 8.44772 18.667 9C18.667 9.55228 18.2193 10 17.667 10H12.667V14H18.0812L22.3741 18.2929C22.7646 18.6834 22.7646 19.3166 22.3741 19.7071C21.9836 20.0976 21.3504 20.0976 20.9599 19.7071L17.2528 16H11.667C11.1147 16 10.667 15.5523 10.667 15V7C10.667 6.44772 11.1147 6 11.667 6Z" fill="#101010" fill-opacity="0.5"></path><path d="M8.66699 8.58203C5.73516 9.76881 3.66699 12.6431 3.66699 16.0005C3.66699 20.4188 7.24871 24.0005 11.667 24.0005C14.6465 24.0005 17.2455 22.3717 18.6223 19.956L17.1367 18.4704C16.1952 20.5521 14.1002 22.0005 11.667 22.0005C8.35328 22.0005 5.66699 19.3142 5.66699 16.0005C5.66699 13.7797 6.87359 11.8406 8.66699 10.8032V8.58203Z" fill="#101010" fill-opacity="0.5"></path></g><defs><clipPath id="clip0_9058_37955"><rect width="24" height="24" fill="white" transform="translate(0.666992)"></rect></clipPath></defs></svg>