<svg xmlns="http://www.w3.org/2000/svg" width="16" height="16" viewBox="0 0 16 16" fill="none"><g clip-path="url(#clip0_10041_49224)"><path d="M8.00002 0C3.58879 0 0 3.91514 0 8.72728V12.7273C0 12.9281 0.162818 13.0909 0.363648 13.0909H1.45456V14.5455C1.45456 15.3477 2.10689 16 2.90912 16H4.00003C4.20103 16 4.36367 15.8374 4.36367 15.6364V9.09093C4.36367 8.88993 4.20103 8.72728 4.00003 8.72728H2.90912C2.10692 8.72728 1.45456 9.37961 1.45456 10.1818V8.72728C1.45456 4.71699 4.39098 1.45456 8.00002 1.45456C11.6091 1.45456 14.5455 4.71699 14.5455 8.72728V10.1818C14.5455 9.37961 13.8931 8.72728 13.0909 8.72728H12C11.799 8.72728 11.6364 8.88993 11.6364 9.09093V15.6364C11.6364 15.8374 11.799 16 12 16H13.0909C13.8931 16 14.5455 15.3477 14.5455 14.5455V13.0909H15.6364C15.8372 13.0909 16 12.9281 16 12.7273V8.72728C16 3.91514 12.4112 0 8.00002 0Z" fill="#101010" fill-opacity="0.8"></path></g><defs><clipPath id="clip0_10041_49224"><rect width="16" height="16" fill="white"></rect></clipPath></defs></svg>