<svg xmlns="http://www.w3.org/2000/svg" width="24" height="25" viewBox="0 0 24 25" fill="none"><path d="M2.4585 2.5C2.146 2.5 1.88037 2.60938 1.66162 2.82812C1.44287 3.04688 1.3335 3.3125 1.3335 3.625C1.3335 3.9375 1.44287 4.20312 1.66162 4.42188C1.88037 4.64062 2.146 4.75 2.4585 4.75H4.54443L6.56006 14.7109C6.70068 15.4141 7.04443 15.9922 7.59131 16.4453C8.13818 16.8984 8.771 17.125 9.48975 17.125H19.8726C20.3101 17.125 20.6929 17 21.021 16.75C21.3647 16.4844 21.5913 16.1406 21.7007 15.7188L23.4116 9.15625C23.4585 9 23.4663 8.85156 23.4351 8.71094C23.4194 8.55469 23.3647 8.40625 23.271 8.26562C23.1929 8.14062 23.0835 8.03125 22.9429 7.9375C22.8179 7.84375 22.6772 7.78906 22.521 7.77344L11.646 5.89844C11.3491 5.83594 11.0679 5.89844 10.8022 6.08594C10.5522 6.25781 10.4038 6.5 10.3569 6.8125C10.2944 7.10938 10.3491 7.39062 10.521 7.65625C10.7085 7.90625 10.9585 8.05469 11.271 8.10156L20.9272 9.76562L19.5913 14.875H9.48975C9.31787 14.875 9.16162 14.8203 9.021 14.7109C8.88037 14.6016 8.79443 14.4531 8.76318 14.2656L6.56006 3.41406C6.51318 3.14844 6.38037 2.92969 6.16162 2.75781C5.9585 2.58594 5.72412 2.5 5.4585 2.5H2.4585ZM9.9585 21.25C9.9585 21.7656 9.771 22.2109 9.396 22.5859C9.03662 22.9453 8.59912 23.125 8.0835 23.125C7.56787 23.125 7.12256 22.9453 6.74756 22.5859C6.38818 22.2109 6.2085 21.7656 6.2085 21.25C6.2085 20.7344 6.38818 20.2969 6.74756 19.9375C7.12256 19.5625 7.56787 19.375 8.0835 19.375C8.59912 19.375 9.03662 19.5625 9.396 19.9375C9.771 20.2969 9.9585 20.7344 9.9585 21.25ZM21.9585 21.25C21.9585 21.7656 21.771 22.2109 21.396 22.5859C21.0366 22.9453 20.5991 23.125 20.0835 23.125C19.5679 23.125 19.1226 22.9453 18.7476 22.5859C18.3882 22.2109 18.2085 21.7656 18.2085 21.25C18.2085 20.7344 18.3882 20.2969 18.7476 19.9375C19.1226 19.5625 19.5679 19.375 20.0835 19.375C20.5991 19.375 21.0366 19.5625 21.396 19.9375C21.771 20.2969 21.9585 20.7344 21.9585 21.25Z" fill="white"></path></svg>