<svg xmlns="http://www.w3.org/2000/svg" width="32" height="32" viewBox="0 0 32 32" fill="none"><path fill-rule="evenodd" clip-rule="evenodd" d="M7 2C5.34315 2 4 3.34315 4 5V17H6V5C6 4.44772 6.44772 4 7 4H15V11C15 11.5523 15.4477 12 16 12H20C20.5523 12 21 11.5523 21 11V4H29C29.5523 4 30 4.44772 30 5V10.0417V27C30 27.5523 29.5523 28 29 28H10V30H29C30.6569 30 32 28.6568 32 27V10.0417V5C32 3.34314 30.6569 2 29 2H7Z" fill="#1C61E7"></path><path fill-rule="evenodd" clip-rule="evenodd" d="M3 17C1.34315 17 0 18.3431 0 20V27C0 28.6569 1.34315 30 3 30H10C11.6569 30 13 28.6569 13 27V20C13 18.3431 11.6569 17 10 17H9H3ZM2 20C2 19.4477 2.44772 19 3 19H5V22C5 22.5523 5.44772 23 6 23H7C7.55228 23 8 22.5523 8 22V19H9H10C10.5523 19 11 19.4477 11 20V27C11 27.5523 10.5523 28 10 28H3C2.44772 28 2 27.5523 2 27V20Z" fill="#CFCFCF"></path></svg>