<svg xmlns="http://www.w3.org/2000/svg" width="36" height="36" viewBox="0 0 36 36" fill="none"><g clip-path="url(#clip0_8853_33061)"><rect width="36" height="36" rx="18" fill="#1C61E7"></rect><g clip-path="url(#clip1_8853_33061)"><path fill-rule="evenodd" clip-rule="evenodd" d="M20.6665 16.6663C20.6665 18.1391 19.4726 19.333 17.9998 19.333C16.5271 19.333 15.3332 18.1391 15.3332 16.6663C15.3332 15.1936 16.5271 13.9997 17.9998 13.9997C19.4726 13.9997 20.6665 15.1936 20.6665 16.6663ZM19.3332 16.6663C19.3332 17.4027 18.7362 17.9997 17.9998 17.9997C17.2635 17.9997 16.6665 17.4027 16.6665 16.6663C16.6665 15.93 17.2635 15.333 17.9998 15.333C18.7362 15.333 19.3332 15.93 19.3332 16.6663Z" fill="white"></path><path fill-rule="evenodd" clip-rule="evenodd" d="M17.9998 11.333C15.0543 11.333 12.6665 13.7208 12.6665 16.6663C12.6665 18.1279 13.3997 20.0844 14.3465 21.6453C14.8262 22.4361 15.385 23.1665 15.9769 23.7081C16.5501 24.2326 17.249 24.6663 17.9998 24.6663C18.7507 24.6663 19.4496 24.2326 20.0228 23.7081C20.6146 23.1665 21.1734 22.4361 21.6532 21.6453C22.6 20.0844 23.3332 18.1279 23.3332 16.6663C23.3332 13.7208 20.9454 11.333 17.9998 11.333ZM13.9998 16.6663C13.9998 14.4572 15.7907 12.6663 17.9998 12.6663C20.209 12.6663 21.9998 14.4572 21.9998 16.6663C21.9998 17.7821 21.3997 19.4923 20.5132 20.9537C20.0762 21.674 19.5934 22.2937 19.1227 22.7245C18.6334 23.1722 18.249 23.333 17.9998 23.333C17.7507 23.333 17.3663 23.1722 16.877 22.7245C16.4063 22.2937 15.9234 21.674 15.4865 20.9537C14.6 19.4923 13.9998 17.7821 13.9998 16.6663Z" fill="white"></path></g></g><defs><clipPath id="clip0_8853_33061"><rect width="36" height="36" rx="18" fill="white"></rect></clipPath><clipPath id="clip1_8853_33061"><rect width="16" height="16" fill="white" transform="translate(10 10)"></rect></clipPath></defs></svg>