<svg xmlns="http://www.w3.org/2000/svg" width="25" height="24" viewBox="0 0 25 24" fill="none"><g clip-path="url(#clip0_9058_37937)"><path fill-rule="evenodd" clip-rule="evenodd" d="M10.334 5C9.7817 5 9.33398 5.44772 9.33398 6V17C9.33398 17.5523 9.7817 18 10.334 18C10.8863 18 11.334 17.5523 11.334 17V14H12.834C15.3193 14 17.334 11.9853 17.334 9.5C17.334 7.01472 15.3193 5 12.834 5H10.334ZM12.834 12H11.334V7H12.834C14.2147 7 15.334 8.11929 15.334 9.5C15.334 10.8807 14.2147 12 12.834 12Z" fill="#101010" fill-opacity="0.5"></path><path fill-rule="evenodd" clip-rule="evenodd" d="M3.33398 0C1.67713 0 0.333984 1.34314 0.333984 3V21C0.333984 22.6569 1.67713 24 3.33398 24H21.334C22.9908 24 24.334 22.6569 24.334 21V3C24.334 1.34315 22.9908 0 21.334 0H3.33398ZM2.33398 3C2.33398 2.44772 2.7817 2 3.33398 2H21.334C21.8863 2 22.334 2.44771 22.334 3V21C22.334 21.5523 21.8863 22 21.334 22H3.33398C2.7817 22 2.33398 21.5523 2.33398 21V3Z" fill="#101010" fill-opacity="0.5"></path></g><defs><clipPath id="clip0_9058_37937"><rect width="24" height="24" fill="white" transform="translate(0.333984)"></rect></clipPath></defs></svg>