<svg xmlns="http://www.w3.org/2000/svg" width="16" height="16" viewBox="0 0 16 16" fill="none"><g clip-path="url(#clip0_10041_49222)"><path d="M14.5139 0.245418L15.741 1.47251C15.9864 1.79973 15.9864 2.29057 15.741 2.6178L14.4321 3.92669L12.0597 1.55432L13.3686 0.245418C13.6958 -0.0818061 14.1866 -0.0818061 14.5139 0.245418Z" fill="#101010" fill-opacity="0.8"></path><path d="M2.07957 11.6164L10.9964 2.78133L13.287 5.0719L4.45195 13.9888C3.8793 14.4796 2.4886 15.1341 1.67054 14.9704L0.77067 15.8703C0.525251 16.1157 0.279833 15.9521 0.198027 15.8703C0.0344143 15.7067 0.0344143 15.4613 0.198027 15.2977L1.09789 14.3978C0.852476 13.5797 1.50692 12.189 2.07957 11.6164Z" fill="#101010" fill-opacity="0.8"></path></g><defs><clipPath id="clip0_10041_49222"><rect width="16" height="16" fill="white"></rect></clipPath></defs></svg>