<svg xmlns="http://www.w3.org/2000/svg" width="36" height="36" viewBox="0 0 36 36" fill="none"><g clip-path="url(#clip0_8853_33062)"><rect width="36" height="36" rx="18" fill="#1C61E7"></rect><g clip-path="url(#clip1_8853_33062)"><g clip-path="url(#clip2_8853_33062)"><path fill-rule="evenodd" clip-rule="evenodd" d="M13.2083 10.667C11.8739 10.667 10.6177 11.6966 10.6926 13.1677C11.0199 19.5943 16.3701 24.984 22.8331 25.3085C24.3038 25.3824 25.3334 24.1267 25.3334 22.7921V22.2803C25.3334 20.5791 23.8012 19.4706 22.372 19.2645L22.3305 19.2583C21.4378 19.1239 20.4159 19.3084 19.692 20.0323L19.3553 20.3689C17.7618 19.544 16.4564 18.2386 15.6315 16.6451L15.9681 16.3084C16.692 15.5845 16.8765 14.5626 16.7421 13.6699L16.736 13.6284C16.5298 12.1992 15.4213 10.667 13.7201 10.667H13.2083ZM12.0243 13.0999C11.995 12.5257 12.4948 12.0003 13.2083 12.0003H13.7201C14.5175 12.0003 15.2657 12.775 15.4163 13.8188L15.4236 13.8685C15.5142 14.4695 15.3695 15.0214 15.0253 15.3656L14.3535 16.0374C14.1574 16.2336 14.1032 16.5307 14.2175 16.7835C15.2189 18.9978 17.0026 20.7815 19.2169 21.7829C19.4697 21.8972 19.7668 21.8431 19.963 21.6469L20.6348 20.9751C20.979 20.6309 21.5309 20.4863 22.1319 20.5768L22.1816 20.5841C23.2254 20.7347 24.0001 21.4829 24.0001 22.2803V22.7921C24.0001 23.5055 23.4747 24.0058 22.9 23.9769C17.1239 23.6868 12.3169 18.8466 12.0243 13.0999Z" fill="white"></path></g></g></g><defs><clipPath id="clip0_8853_33062"><rect width="36" height="36" rx="18" fill="white"></rect></clipPath><clipPath id="clip1_8853_33062"><rect width="16" height="16" fill="white" transform="translate(10 10)"></rect></clipPath><clipPath id="clip2_8853_33062"><rect width="16" height="16" fill="white" transform="translate(10 10)"></rect></clipPath></defs></svg>