<svg xmlns="http://www.w3.org/2000/svg" width="16" height="16" viewBox="0 0 16 16" fill="none"><g clip-path="url(#clip0_10053_49230)"><path d="M3.56406 0C3.16823 0 2.80365 0.109375 2.47031 0.328125C2.13698 0.536458 1.89219 0.822917 1.73594 1.1875L0.235938 4.54688C0.100521 4.83854 0.0223958 5.14583 0.0015625 5.46875C-0.00885417 5.78125 0.0328125 6.09375 0.126562 6.40625L0.142188 6.45313C0.215104 6.70313 0.324479 6.9375 0.470313 7.15625C0.626563 7.36458 0.803646 7.54688 1.00156 7.70313V14C1.00156 14.5521 1.19427 15.0208 1.57969 15.4063C1.97552 15.8021 2.44948 16 3.00156 16H4.50156C5.05365 16 5.5224 15.8021 5.90781 15.4063C6.30365 15.0208 6.50156 14.5521 6.50156 14V11C6.50156 10.8646 6.54844 10.75 6.64219 10.6563C6.74635 10.5521 6.86615 10.5 7.00156 10.5H9.00156C9.13698 10.5 9.25156 10.5521 9.34531 10.6563C9.44948 10.75 9.50156 10.8646 9.50156 11V14C9.50156 14.5521 9.69427 15.0208 10.0797 15.4063C10.4755 15.8021 10.9495 16 11.5016 16H13.0016C13.5536 16 14.0224 15.8021 14.4078 15.4063C14.8036 15.0208 15.0016 14.5521 15.0016 14V7.70313C15.1995 7.54688 15.3714 7.36458 15.5172 7.15625C15.6734 6.9375 15.788 6.70313 15.8609 6.45313L15.8766 6.40625C15.9703 6.09375 16.0068 5.78125 15.9859 5.46875C15.9755 5.14583 15.9026 4.83854 15.7672 4.54688L14.2672 1.1875C14.1109 0.822917 13.8661 0.536458 13.5328 0.328125C13.1995 0.109375 12.8349 0 12.4391 0H3.56406ZM3.11094 1.79688C3.1526 1.70313 3.2099 1.63021 3.28281 1.57813C3.36615 1.52604 3.4599 1.5 3.56406 1.5H12.4391C12.5432 1.5 12.6318 1.52604 12.7047 1.57813C12.788 1.63021 12.8505 1.70313 12.8922 1.79688L14.4078 5.15625C14.4599 5.28125 14.4911 5.41667 14.5016 5.5625C14.512 5.69792 14.4964 5.82813 14.4547 5.95313L14.4391 6C14.3661 6.22917 14.2359 6.41146 14.0484 6.54688C13.8609 6.68229 13.6526 6.75 13.4234 6.75C13.1734 6.75 12.9495 6.67708 12.7516 6.53125C12.5641 6.375 12.4443 6.17708 12.3922 5.9375L12.2359 5.3125C12.1943 5.14583 12.1057 5.01042 11.9703 4.90625C11.8349 4.80208 11.6786 4.75 11.5016 4.75C11.3245 4.75 11.1682 4.80208 11.0328 4.90625C10.8974 5.01042 10.8089 5.14583 10.7672 5.3125L10.5797 6.10938C10.5276 6.29688 10.4234 6.45313 10.2672 6.57813C10.1214 6.69271 9.94948 6.75 9.75156 6.75C9.55365 6.75 9.37656 6.69271 9.22031 6.57813C9.07448 6.45313 8.97552 6.29688 8.92344 6.10938L8.73594 5.3125C8.69427 5.14583 8.60573 5.01042 8.47031 4.90625C8.3349 4.80208 8.17865 4.75 8.00156 4.75C7.82448 4.75 7.66823 4.80208 7.53281 4.90625C7.3974 5.01042 7.30885 5.14583 7.26719 5.3125L7.07969 6.10938C7.0276 6.29688 6.92344 6.45313 6.76719 6.57813C6.62135 6.69271 6.44948 6.75 6.25156 6.75C6.05365 6.75 5.87656 6.69271 5.72031 6.57813C5.57448 6.45313 5.47552 6.29688 5.42344 6.10938L5.23594 5.3125C5.19427 5.14583 5.10573 5.01042 4.97031 4.90625C4.8349 4.80208 4.67865 4.75 4.50156 4.75C4.32448 4.75 4.16823 4.80208 4.03281 4.90625C3.8974 5.01042 3.80885 5.14583 3.76719 5.3125L3.61094 5.9375C3.55885 6.17708 3.43385 6.375 3.23594 6.53125C3.04844 6.67708 2.82969 6.75 2.57969 6.75C2.35052 6.75 2.14219 6.68229 1.95469 6.54688C1.76719 6.41146 1.63698 6.22917 1.56406 6L1.54844 5.95313C1.50677 5.82813 1.49115 5.69792 1.50156 5.5625C1.51198 5.41667 1.54323 5.28125 1.59531 5.15625L3.11094 1.79688ZM13.5016 8.25V14C13.5016 14.1354 13.4495 14.2552 13.3453 14.3594C13.2516 14.4531 13.137 14.5 13.0016 14.5H11.5016C11.3661 14.5 11.2464 14.4531 11.1422 14.3594C11.0484 14.2552 11.0016 14.1354 11.0016 14V11C11.0016 10.4479 10.8036 9.97917 10.4078 9.59375C10.0224 9.19792 9.55365 9 9.00156 9H7.00156C6.44948 9 5.97552 9.19792 5.57969 9.59375C5.19427 9.97917 5.00156 10.4479 5.00156 11V14C5.00156 14.1354 4.94948 14.2552 4.84531 14.3594C4.75156 14.4531 4.63698 14.5 4.50156 14.5H3.00156C2.86615 14.5 2.74635 14.4531 2.64219 14.3594C2.54844 14.2552 2.50156 14.1354 2.50156 14V8.25C2.51198 8.25 2.5224 8.25 2.53281 8.25C2.55365 8.25 2.56927 8.25 2.57969 8.25C2.95469 8.25 3.30365 8.17708 3.62656 8.03125C3.94948 7.88542 4.23073 7.68229 4.47031 7.42188C4.68906 7.68229 4.94948 7.88542 5.25156 8.03125C5.56406 8.17708 5.8974 8.25 6.25156 8.25C6.59531 8.25 6.91823 8.18229 7.22031 8.04688C7.5224 7.90104 7.78281 7.70833 8.00156 7.46875C8.22031 7.70833 8.48073 7.90104 8.78281 8.04688C9.0849 8.18229 9.40781 8.25 9.75156 8.25C10.1057 8.25 10.4339 8.17708 10.7359 8.03125C11.0484 7.88542 11.3141 7.68229 11.5328 7.42188C11.7724 7.68229 12.0536 7.88542 12.3766 8.03125C12.6995 8.17708 13.0484 8.25 13.4234 8.25C13.4339 8.25 13.4443 8.25 13.4547 8.25C13.4755 8.25 13.4911 8.25 13.5016 8.25Z" fill="#3E3E3E"></path></g><defs><clipPath id="clip0_10053_49230"><rect width="16" height="16" fill="white"></rect></clipPath></defs></svg>