<svg xmlns="http://www.w3.org/2000/svg" width="33" height="32" viewBox="0 0 33 32" fill="none"><g clip-path="url(#clip0_7425_34125)"><path fill-rule="evenodd" clip-rule="evenodd" d="M7.5 2C5.84315 2 4.5 3.34315 4.5 5V17H6.5V5C6.5 4.44772 6.94772 4 7.5 4H15.5V11C15.5 11.5523 15.9477 12 16.5 12H20.5C21.0523 12 21.5 11.5523 21.5 11V4H29.5C30.0523 4 30.5 4.44771 30.5 5V10.0417V27C30.5 27.5523 30.0523 28 29.5 28H10.5V30H29.5C31.1569 30 32.5 28.6569 32.5 27V10.0417V5C32.5 3.34314 31.1569 2 29.5 2H7.5Z" fill="#CFCFCF"></path><path fill-rule="evenodd" clip-rule="evenodd" d="M3.5 17C1.84315 17 0.5 18.3431 0.5 20V27C0.5 28.6569 1.84315 30 3.5 30H10.5C12.1569 30 13.5 28.6569 13.5 27V20C13.5 18.3431 12.1569 17 10.5 17H9.5H3.5ZM2.5 20C2.5 19.4477 2.94772 19 3.5 19H5.5V22C5.5 22.5523 5.94772 23 6.5 23H7.5C8.05228 23 8.5 22.5523 8.5 22V19H9.5H10.5C11.0523 19 11.5 19.4477 11.5 20V27C11.5 27.5523 11.0523 28 10.5 28H3.5C2.94772 28 2.5 27.5523 2.5 27V20Z" fill="#1C61E7"></path></g><defs><clipPath id="clip0_7425_34125"><rect width="32" height="32" fill="white" transform="translate(0.5)"></rect></clipPath></defs></svg>