<svg xmlns="http://www.w3.org/2000/svg" width="32" height="32" viewBox="0 0 32 32" fill="none"><rect width="32" height="32" rx="16" fill="#1C61E7"></rect><path d="M14.2813 9.21875C14.1354 9.07292 13.9583 9 13.75 9C13.5417 9 13.3646 9.07292 13.2188 9.21875C13.0729 9.36458 13 9.54167 13 9.75C13 9.95833 13.0729 10.1354 13.2188 10.2813L19.1875 16.25L13.2188 22.2188C13.0729 22.3646 13 22.5417 13 22.75C13 22.9583 13.0729 23.1354 13.2188 23.2813C13.3646 23.4271 13.5417 23.5 13.75 23.5C13.9583 23.5 14.1354 23.4271 14.2813 23.2813L20.7813 16.7813C20.9271 16.6354 21 16.4583 21 16.25C21 16.0417 20.9271 15.8646 20.7813 15.7188L14.2813 9.21875Z" fill="white"></path></svg>