<svg xmlns="http://www.w3.org/2000/svg" width="128" height="128" viewBox="0 0 128 128" fill="none"><path d="M110 71V102C110 103.105 109.105 104 108 104H19C17.8954 104 17 103.105 17 102V84C17 82.8954 17.8954 82 19 82H33V58C33 56.8954 33.8954 56 35 56H79C80.1046 56 81 56.8954 81 58V69H108C109.105 69 110 69.8954 110 71Z" fill="white"></path><path fill-rule="evenodd" clip-rule="evenodd" d="M74 55C74 50.5817 77.5817 47 82 47C86.4183 47 90 50.5817 90 55C90 59.4183 86.4183 63 82 63V68H108C109.657 68 111 69.3431 111 71V102C111 103.657 109.657 105 108 105H19C17.3431 105 16 103.657 16 102V84C16 82.3431 17.3431 81 19 81H32V58C32 56.3431 33.3431 55 35 55H74ZM74.252 57H63V74C63 74.5523 62.5523 75 62 75H52C51.4477 75 51 74.5523 51 74V57H35C34.4477 57 34 57.4477 34 58V81H37C38.6569 81 40 82.3431 40 84V103H80V62.748C77.1888 62.0244 74.9756 59.8112 74.252 57ZM86.7071 52.2929C87.0976 52.6834 87.0976 53.3166 86.7071 53.7071L81.7071 58.7071C81.3468 59.0674 80.7732 59.0992 80.3753 58.7809L77.8753 56.7809C77.444 56.4359 77.3741 55.8066 77.7191 55.3753C78.0641 54.944 78.6934 54.8741 79.1247 55.2191L80.9258 56.66L85.2929 52.2929C85.6834 51.9024 86.3166 51.9024 86.7071 52.2929ZM82 70V103H108C108.552 103 109 102.552 109 102V71C109 70.4477 108.552 70 108 70H97V85C97 85.5523 96.5523 86 96 86H88C87.4477 86 87 85.5523 87 85V70H82ZM38 103V84C38 83.4477 37.5523 83 37 83H31V90C31 90.5523 30.5523 91 30 91H26C25.4477 91 25 90.5523 25 90V83H19C18.4477 83 18 83.4477 18 84V102C18 102.552 18.4477 103 19 103H38Z" fill="#1C61E7"></path><path fill-rule="evenodd" clip-rule="evenodd" d="M76 24C76 30.6274 69 44 64 44C59 44 52 30.6274 52 24C52 17.3726 57.3726 12 64 12C70.6274 12 76 17.3726 76 24ZM70 24C70 27.3137 67.3137 30 64 30C60.6863 30 58 27.3137 58 24C58 20.6863 60.6863 18 64 18C67.3137 18 70 20.6863 70 24Z" fill="#101010" fill-opacity="0.2"></path><path d="M1 105C0.447715 105 0 105.448 0 106C0 106.552 0.447715 107 1 107H127C127.552 107 128 106.552 128 106C128 105.448 127.552 105 127 105H1Z" fill="#101010" fill-opacity="0.2"></path></svg>