<svg xmlns="http://www.w3.org/2000/svg" width="128" height="128" viewBox="0 0 128 128" fill="none"><path d="M45 34C45 31.2386 47.2386 29 50 29H78C80.7614 29 83 31.2386 83 34V94C83 96.7614 80.7614 99 78 99H50C47.2386 99 45 96.7614 45 94V34Z" fill="white"></path><path fill-rule="evenodd" clip-rule="evenodd" d="M78 29C80.7614 29 83 31.2386 83 34V94C83 96.7614 80.7614 99 78 99H50C47.2386 99 45 96.7614 45 94V34C45 31.2386 47.2386 29 50 29H78ZM81 34V94C81 95.6569 79.6569 97 78 97H50C48.3431 97 47 95.6569 47 94V34C47 32.3431 48.3431 31 50 31H54C54.5523 31 55 31.4477 55 32C55 33.6569 56.3431 35 58 35H70C71.6569 35 73 33.6569 73 32C73 31.4477 73.4477 31 74 31H78C79.6569 31 81 32.3431 81 34ZM71.1707 31H56.8293C56.9398 31.3128 57 31.6494 57 32C57 32.5523 57.4477 33 58 33H70C70.5523 33 71 32.5523 71 32C71 31.6494 71.0602 31.3128 71.1707 31Z" fill="#1C61E7"></path><path d="M25 46C25 48.2091 26.7909 50 29 50H31.6056C32.3757 50 33 50.6243 33 51.3944C33 52.5082 34.2413 53.1725 35.1679 52.5547L38.1633 50.5578C38.7089 50.1941 39.3499 50 40.0056 50H46C48.7614 50 51 47.7614 51 45V39C51 36.2386 48.7614 34 46 34H30C27.2386 34 25 36.2386 25 39V46Z" fill="white"></path><path d="M31 68C31 70.2091 32.7909 72 35 72H37.6056C38.3757 72 39 72.6243 39 73.3944C39 74.5082 40.2413 75.1725 41.1679 74.5547L44.1633 72.5578C44.7089 72.1941 45.3499 72 46.0056 72H52C54.7614 72 57 69.7614 57 67V61C57 58.2386 54.7614 56 52 56H36C33.2386 56 31 58.2386 31 61L31 68Z" fill="white"></path><path d="M89.2071 31.2071C89.5976 30.8166 89.5976 30.1834 89.2071 29.7929C88.8166 29.4024 88.1834 29.4024 87.7929 29.7929L86 31.5858C85.219 32.3668 85.219 33.6332 86 34.4142L87.5858 36L86 37.5858C85.219 38.3668 85.219 39.6332 86 40.4142L87.5858 42L85.7929 43.7929C85.4024 44.1834 85.4024 44.8166 85.7929 45.2071C86.1834 45.5976 86.8166 45.5976 87.2071 45.2071L89 43.4142C89.7811 42.6332 89.7811 41.3668 89 40.5858L87.4142 39L89 37.4142C89.781 36.6332 89.7811 35.3668 89 34.5858L87.4142 33L89.2071 31.2071Z" fill="#101010" fill-opacity="0.2"></path><path fill-rule="evenodd" clip-rule="evenodd" d="M29 50C26.7909 50 25 48.2091 25 46V39C25 36.2386 27.2386 34 30 34L46 34C48.7614 34 51 36.2386 51 39V45C51 47.7614 48.7614 50 46 50H40.0056C39.3499 50 38.7089 50.1941 38.1633 50.5578L35.1679 52.5547C34.2413 53.1725 33 52.5082 33 51.3944C33 50.6243 32.3757 50 31.6056 50H29ZM27 46L27 39C27 37.3431 28.3431 36 30 36L46 36C47.6569 36 49 37.3431 49 39V45C49 46.6569 47.6569 48 46 48H40.0056C38.955 48 37.928 48.311 37.0539 48.8937L34.8421 50.3682C34.4071 48.9951 33.1226 48 31.6056 48H29C27.8954 48 27 47.1046 27 46Z" fill="#101010" fill-opacity="0.2"></path><path fill-rule="evenodd" clip-rule="evenodd" d="M35 72C32.7909 72 31 70.2091 31 68V61C31 58.2386 33.2386 56 36 56H52C54.7614 56 57 58.2386 57 61V67C57 69.7614 54.7614 72 52 72H46.0056C45.3499 72 44.7089 72.1941 44.1633 72.5578L41.1679 74.5547C40.2413 75.1725 39 74.5082 39 73.3944C39 72.6243 38.3757 72 37.6056 72H35ZM33 68L33 61C33 59.3431 34.3431 58 36 58H52C53.6569 58 55 59.3431 55 61V67C55 68.6569 53.6569 70 52 70H46.0056C44.955 70 43.928 70.311 43.0539 70.8937L40.8421 72.3682C40.4071 70.9951 39.1226 70 37.6056 70H35C33.8954 70 33 69.1046 33 68Z" fill="#101010" fill-opacity="0.2"></path><path d="M42.2071 81.7929C42.5976 82.1834 42.5976 82.8166 42.2071 83.2071L40.4142 85L42 86.5858C42.781 87.3668 42.781 88.6332 42 89.4142L40.4142 91L42 92.5858C42.781 93.3668 42.781 94.6332 42 95.4142L40.2071 97.2071C39.8166 97.5976 39.1834 97.5976 38.7929 97.2071C38.4024 96.8166 38.4024 96.1834 38.7929 95.7929L40.5858 94L39 92.4142C38.219 91.6332 38.219 90.3668 39 89.5858L40.5858 88L39 86.4142C38.219 85.6332 38.219 84.3668 39 83.5858L40.7929 81.7929C41.1834 81.4024 41.8166 81.4024 42.2071 81.7929Z" fill="#101010" fill-opacity="0.2"></path></svg>