<svg xmlns="http://www.w3.org/2000/svg" width="128" height="128" viewBox="0 0 128 128" fill="none"><rect x="47" y="40" width="34" height="48" rx="5" fill="white"></rect><path d="M55.3672 56C54.8149 56 54.3672 56.4477 54.3672 57C54.3672 57.5523 54.8149 58 55.3672 58H56.7644L58.94 65.7003C59.305 66.9924 60.4842 67.8846 61.827 67.8846H68.6827C70.091 67.8846 71.3098 66.905 71.6125 65.5296L72.6131 60.9842C72.6725 60.7142 72.6175 60.4316 72.4611 60.2036C72.3047 59.9756 72.0609 59.8225 71.7875 59.7807L62.9798 58.4346C62.4339 58.3511 61.9237 58.7261 61.8402 59.272C61.7568 59.8179 62.1317 60.3282 62.6777 60.4116L70.4304 61.5965L69.6593 65.0996C69.5584 65.5581 69.1521 65.8846 68.6827 65.8846H61.827C61.3794 65.8846 60.9863 65.5872 60.8646 65.1565L58.4834 56.7281C58.3617 56.2974 57.9686 56 57.521 56H55.3672Z" fill="#1C61E7"></path><path d="M62 70.5C62 71.3284 61.3284 72 60.5 72C59.6716 72 59 71.3284 59 70.5C59 69.6716 59.6716 69 60.5 69C61.3284 69 62 69.6716 62 70.5Z" fill="#1C61E7"></path><path d="M71 70.5C71 71.3284 70.3284 72 69.5 72C68.6716 72 68 71.3284 68 70.5C68 69.6716 68.6716 69 69.5 69C70.3284 69 71 69.6716 71 70.5Z" fill="#1C61E7"></path><path fill-rule="evenodd" clip-rule="evenodd" d="M56 39C56 34.5817 59.5817 31 64 31C68.4183 31 72 34.5817 72 39H76C79.3137 39 82 41.6863 82 45V83C82 86.3137 79.3137 89 76 89H52C48.6863 89 46 86.3137 46 83V45C46 41.6863 48.6863 39 52 39H56ZM56.252 41H52C49.7909 41 48 42.7909 48 45V83C48 85.2091 49.7909 87 52 87H76C78.2091 87 80 85.2091 80 83V45C80 42.7909 78.2091 41 76 41H71.748C70.8599 44.4505 67.7277 47 64 47C60.2723 47 57.1401 44.4505 56.252 41ZM68.7071 36.2929C69.0976 36.6834 69.0976 37.3166 68.7071 37.7071L63.7071 42.7071C63.3468 43.0674 62.7732 43.0992 62.3753 42.7809L59.8753 40.7809C59.444 40.4359 59.3741 39.8066 59.7191 39.3753C60.0641 38.944 60.6934 38.8741 61.1247 39.2191L62.9258 40.66L67.2929 36.2929C67.6834 35.9024 68.3166 35.9024 68.7071 36.2929Z" fill="#1C61E7"></path><path d="M68.9517 86.3833C68.5844 86.6978 68.4434 87.229 68.621 87.6885L69.8483 90.8637C70.0777 91.4574 70.6313 92.2508 71.1177 92.6733L71.1231 92.678L71.1285 92.6825L68.9517 86.3833ZM68.9517 86.3833L68.9379 86.3564M68.9517 86.3833L68.9379 86.3564M68.9379 86.3564L69.1677 86.2382L68.9379 86.3564ZM72.3801 87.0314C71.6028 86.1334 70.2814 85.8086 69.1734 86.2493L71.1286 92.6825L71.1287 92.6826L71.1297 92.6835L71.1343 92.6873L71.1535 92.7033C71.1706 92.7176 71.196 92.7391 71.2287 92.7668C71.294 92.8223 71.3878 92.9029 71.5007 93.0021C71.727 93.2012 72.0268 93.4727 72.325 93.7658C72.6259 94.0615 72.9125 94.3669 73.1197 94.6348C73.2236 94.7692 73.2971 94.8809 73.3422 94.9672C73.3671 95.0147 73.3767 95.0422 73.3801 95.0525V96V96.6H73.9801H77.9801H79.0739H79.9801H80.9801H81.5801V96V95.03C81.5801 95.0303 81.5801 95.0261 81.5811 95.0165C81.5821 95.0071 81.5839 94.9941 81.587 94.9772C81.5934 94.9429 81.604 94.8986 81.6202 94.8438C81.6529 94.7334 81.7028 94.5987 81.7683 94.444C81.8993 94.1348 82.078 93.78 82.2625 93.438C82.4461 93.0978 82.6303 92.7797 82.7691 92.5461C82.8383 92.4295 82.8959 92.3344 82.936 92.2688L82.9822 92.1936L82.9941 92.1745L82.9969 92.1699L82.9976 92.1689L82.9977 92.1688L82.9977 92.1687L82.9977 92.1687L83.0015 92.1626L83.0052 92.1564C83.1794 91.8621 83.3244 91.4848 83.4259 91.1188C83.5273 90.7533 83.5982 90.3529 83.5982 90.0066V85.9718H83.5983L83.598 85.9597C83.573 84.7205 82.5277 83.7545 81.2838 83.7545C80.9801 83.7545 80.6913 83.8478 80.4528 84.01C80.0278 83.5521 79.4106 83.2693 78.7391 83.2693C78.4354 83.2693 78.1467 83.3626 77.9081 83.5247C77.4831 83.0669 76.866 82.7841 76.1944 82.7841C76.0658 82.7841 75.9398 82.8008 75.8192 82.8324L75.6411 79.964C75.5863 79.0821 74.8472 78.4 73.9801 78.4C73.0912 78.4 72.3801 79.1177 72.3801 79.9998V84V87.0314Z" fill="white" stroke="#363B3E" stroke-width="1.2"></path><path d="M10 39C7.23858 39 5 41.2386 5 44V84C5 86.7614 7.23858 89 10 89H36C38.7614 89 41 86.7614 41 84V44C41 41.2386 38.7614 39 36 39H10Z" fill="#101010" fill-opacity="0.03"></path><path d="M92 39C89.2386 39 87 41.2386 87 44V84C87 86.7614 89.2386 89 92 89H118C120.761 89 123 86.7614 123 84V44C123 41.2386 120.761 39 118 39H92Z" fill="#101010" fill-opacity="0.03"></path><path fill-rule="evenodd" clip-rule="evenodd" d="M5 44C5 41.2386 7.23858 39 10 39H36C38.7614 39 41 41.2386 41 44V84C41 86.7614 38.7614 89 36 89H10C7.23858 89 5 86.7614 5 84V44ZM10 41H36C37.6569 41 39 42.3431 39 44V84C39 85.6569 37.6569 87 36 87H10C8.34315 87 7 85.6569 7 84V44C7 42.3431 8.34315 41 10 41Z" fill="#101010" fill-opacity="0.1"></path><path fill-rule="evenodd" clip-rule="evenodd" d="M87 44C87 41.2386 89.2386 39 92 39H118C120.761 39 123 41.2386 123 44V84C123 86.7614 120.761 89 118 89H92C89.2386 89 87 86.7614 87 84V44ZM92 41H118C119.657 41 121 42.3431 121 44V84C121 85.6569 119.657 87 118 87H92C90.3431 87 89 85.6569 89 84V44C89 42.3431 90.3431 41 92 41Z" fill="#101010" fill-opacity="0.1"></path></svg>