<svg xmlns="http://www.w3.org/2000/svg" width="128" height="128" viewBox="0 0 128 128" fill="none"><path d="M1 106H127" stroke="#101010" stroke-opacity="0.2" stroke-width="2" stroke-linecap="round"></path><path d="M92 73H96C101.523 73 106 77.4772 106 83V91C106 93.7614 103.761 96 101 96H98L95 100H85L82 96H44L41 100H31L28 96H26C23.2386 96 21 93.7614 21 91V50C21 47.2386 23.2386 45 26 45H63C65.7614 45 68 47.2386 68 50V56H78.2799C79.9759 56 81.5563 56.8598 82.4777 58.2837L92 73Z" fill="white"></path><path fill-rule="evenodd" clip-rule="evenodd" d="M20 50C20 46.6863 22.6863 44 26 44H63C66.3137 44 69 46.6863 69 50V55H78.2799C80.3151 55 82.2116 56.0317 83.3173 57.7405L92.544 72H96C102.075 72 107 76.9249 107 83V91C107 94.3137 104.314 97 101 97H98.9451C98.4476 101.5 94.6326 105 90 105C85.3674 105 81.5524 101.5 81.0549 97H44.9451C44.4476 101.5 40.6326 105 36 105C31.3674 105 27.5524 101.5 27.0549 97H26C22.6863 97 20 94.3137 20 91V66H22V72H67V50C67 47.7909 65.2091 46 63 46H26C23.7909 46 22 47.7909 22 50H28C28.5523 50 29 50.4477 29 51C29 51.5523 28.5523 52 28 52H16C15.4477 52 15 51.5523 15 51C15 50.4477 15.4477 50 16 50H20ZM81.0549 95C81.5524 90.5 85.3674 87 90 87C94.6326 87 98.4476 90.5 98.9451 95H101C103.209 95 105 93.2091 105 91V86H103C99.6863 86 97 83.3137 97 80V79C97 78.4477 97.4477 78 98 78C98.5523 78 99 78.4477 99 79V80C99 82.2091 100.791 84 103 84H105V83C105 78.0294 100.971 74 96 74H69V95H81.0549ZM67 95H44.9451C44.4476 90.5 40.6326 87 36 87C31.3674 87 27.5524 90.5 27.0549 95H26C23.7909 95 22 93.2091 22 91V74H67V95ZM69 72H90.1619L81.6381 58.827C80.901 57.6878 79.6367 57 78.2799 57H69V72ZM36 99C37.6569 99 39 97.6569 39 96C39 94.3431 37.6569 93 36 93C34.3431 93 33 94.3431 33 96C33 97.6569 34.3431 99 36 99ZM93 96C93 97.6569 91.6569 99 90 99C88.3431 99 87 97.6569 87 96C87 94.3431 88.3431 93 90 93C91.6569 93 93 94.3431 93 96Z" fill="#1C61E7"></path><path d="M20 56V54H22V56H25C25.5523 56 26 56.4477 26 57C26 57.5523 25.5523 58 25 58H9C8.44772 58 8 57.5523 8 57C8 56.4477 8.44772 56 9 56H20Z" fill="#1C61E7"></path><path d="M20 62V60H22V62H30C30.5523 62 31 62.4477 31 63C31 63.5523 30.5523 64 30 64H13C12.4477 64 12 63.5523 12 63C12 62.4477 12.4477 62 13 62H20Z" fill="#1C61E7"></path></svg>