<svg xmlns="http://www.w3.org/2000/svg" width="24" height="24" viewBox="0 0 24 24" fill="none"><rect width="24" height="24" fill="#FFCC00"></rect><path d="M5.9031 12.1501L4.61966 13.9997L7.74929 13.9997C8.78283 13.9997 9.35842 13.2541 9.53587 12.9963H7.40219C7.13161 12.9963 7.21325 12.8782 7.25844 12.8136C7.30686 12.7442 7.37294 12.6486 7.4372 12.5557C7.49104 12.4779 7.54361 12.4019 7.58345 12.3446C7.66949 12.221 7.67179 12.1501 7.49575 12.1501H5.9031Z" fill="#D2002E"></path><path d="M11.274 13.9996L11.97 12.9961L10.1342 12.9963C10.1336 12.9963 9.43804 13.9996 9.43804 13.9996H11.274Z" fill="#D2002E"></path><path d="M10.292 12.7691H14.7825L16.0101 11H14.1749L13.4707 12.0144H12.6515L13.3554 11H11.52L10.292 12.7691Z" fill="#D2002E"></path><path d="M13.9286 13.9997L14.6249 12.9963H12.7895C12.7889 12.9963 12.0933 13.9997 12.0933 13.9997H13.9286Z" fill="#D2002E"></path><path d="M4.70468 13.392H2V13.6051H4.55693L4.70468 13.392Z" fill="#D2002E"></path><path d="M4.97946 12.9963H2V13.2092H4.83143L4.97946 12.9963Z" fill="#D2002E"></path><path d="M4.43004 13.7878H2V13.9997H4.283L4.43004 13.7878Z" fill="#D2002E"></path><path d="M19.3057 13.6051H22V13.392H19.4536L19.3057 13.6051Z" fill="#D2002E"></path><path d="M19.0318 14L22 13.9997V13.7878H19.1789L19.0318 14Z" fill="#D2002E"></path><path d="M22 12.9963H19.728L19.5803 13.2095L22 13.2093V12.9963Z" fill="#D2002E"></path><path d="M17.3241 12.7691L18.5519 11H16.608C16.6074 11 15.3793 12.7691 15.3793 12.7691H17.3241Z" fill="#D2002E"></path><path d="M15.0226 13.2843C15.0877 13.1908 15.2219 12.9963 15.2219 12.9963H19.392L18.6957 13.9997H15.7482C14.9959 13.9997 14.7921 13.6147 15.0226 13.2843Z" fill="#D2002E"></path><path d="M4.87821 11.9208L5.51719 11L9.20252 11C10.1383 11 10.3774 11.7841 10.1156 12.1608C9.92325 12.4378 9.6937 12.7691 9.6937 12.7691H8.26957C7.99895 12.7691 8.08062 12.6512 8.12577 12.5865C8.17167 12.5208 8.23279 12.4309 8.29321 12.3421C8.34995 12.2586 8.40607 12.1761 8.44839 12.1153C8.53443 11.9917 8.53676 11.9208 8.36072 11.9208H4.87821Z" fill="#D2002E"></path></svg>