<svg xmlns="http://www.w3.org/2000/svg" width="24" height="24" viewBox="0 0 24 24" fill="none"><path d="M15 15.0312C15.5523 15.0312 16 14.5835 16 14.0312C16 13.479 15.5523 13.0312 15 13.0312L6 13.0312C5.44772 13.0312 5 13.479 5 14.0312C5 14.5835 5.44772 15.0312 6 15.0312L15 15.0312Z" fill="#1C61E7"></path><path d="M5 11.0312C5.55228 11.0312 6 10.5835 6 10.0312C6 9.47896 5.55228 9.03125 5 9.03125L4 9.03125C3.44772 9.03125 3 9.47896 3 10.0312C3 10.5835 3.44772 11.0312 4 11.0312L5 11.0312Z" fill="#1C61E7"></path><path d="M6 8.03125C6.55228 8.03125 7 7.58354 7 7.03125C7 6.47896 6.55228 6.03125 6 6.03125L5 6.03125C4.44772 6.03125 4 6.47896 4 7.03125C4 7.58353 4.44772 8.03125 5 8.03125L6 8.03125Z" fill="#1C61E7"></path><path d="M9 11.0312C9.55228 11.0312 10 10.5835 10 10.0312C10 9.47896 9.55228 9.03125 9 9.03125L8 9.03125C7.44772 9.03125 7 9.47896 7 10.0312C7 10.5835 7.44772 11.0312 8 11.0312L9 11.0312Z" fill="#1C61E7"></path><path d="M10 8.03125C10.5523 8.03125 11 7.58354 11 7.03125C11 6.47896 10.5523 6.03125 10 6.03125L9 6.03125C8.44772 6.03125 8 6.47896 8 7.03125C8 7.58353 8.44772 8.03125 9 8.03125L10 8.03125Z" fill="#1C61E7"></path><path d="M13 11.0312C13.5523 11.0312 14 10.5835 14 10.0312C14 9.47896 13.5523 9.03125 13 9.03125L12 9.03125C11.4477 9.03125 11 9.47896 11 10.0312C11 10.5835 11.4477 11.0312 12 11.0312L13 11.0312Z" fill="#1C61E7"></path><path d="M14 8.03125C14.5523 8.03125 15 7.58354 15 7.03125C15 6.47896 14.5523 6.03125 14 6.03125L13 6.03125C12.4477 6.03125 12 6.47896 12 7.03125C12 7.58353 12.4477 8.03125 13 8.03125L14 8.03125Z" fill="#1C61E7"></path><path d="M17 11.0312C17.5523 11.0312 18 10.5835 18 10.0312C18 9.47896 17.5523 9.03125 17 9.03125L16 9.03125C15.4477 9.03125 15 9.47896 15 10.0312C15 10.5835 15.4477 11.0312 16 11.0312L17 11.0312Z" fill="#1C61E7"></path><path d="M18 8.03125C18.5523 8.03125 19 7.58354 19 7.03125C19 6.47896 18.5523 6.03125 18 6.03125L17 6.03125C16.4477 6.03125 16 6.47896 16 7.03125C16 7.58353 16.4477 8.03125 17 8.03125L18 8.03125Z" fill="#1C61E7"></path><path d="M2 18.0312H21C21.5523 18.0312 22 17.5835 22 17.0312V6.03125" stroke="#1C61E7" stroke-width="2" stroke-linecap="round"></path></svg>