<svg xmlns="http://www.w3.org/2000/svg" width="24" height="24" viewBox="0 0 24 24" fill="none"><path d="M7 7.03125C7.55228 7.03125 8 6.58354 8 6.03125C8 5.47896 7.55228 5.03125 7 5.03125L5 5.03125C4.44772 5.03125 4 5.47896 4 6.03125C4 6.58354 4.44772 7.03125 5 7.03125L7 7.03125Z" fill="#1C61E7"></path><path d="M7 11.0312C7.55228 11.0312 8 10.5835 8 10.0312C8 9.47896 7.55228 9.03125 7 9.03125L5 9.03125C4.44772 9.03125 4 9.47896 4 10.0312C4 10.5835 4.44772 11.0312 5 11.0312L7 11.0312Z" fill="#1C61E7"></path><path d="M7 15.0312C7.55228 15.0312 8 14.5835 8 14.0312C8 13.479 7.55228 13.0312 7 13.0312L5 13.0312C4.44772 13.0312 4 13.479 4 14.0312C4 14.5835 4.44772 15.0312 5 15.0312L7 15.0312Z" fill="#1C61E7"></path><path d="M19 17.0312C19 16.479 18.5523 16.0312 18 16.0312C17.4477 16.0312 17 16.479 17 17.0312V19.0312C17 19.5835 17.4477 20.0312 18 20.0312C18.5523 20.0312 19 19.5835 19 19.0312V17.0312Z" fill="#1C61E7"></path><path d="M15 17.0312C15 16.479 14.5523 16.0312 14 16.0312C13.4477 16.0312 13 16.479 13 17.0312V19.0312C13 19.5835 13.4477 20.0312 14 20.0312C14.5523 20.0312 15 19.5835 15 19.0312V17.0312Z" fill="#1C61E7"></path><path d="M11 17.0312C11 16.479 10.5523 16.0312 10 16.0312C9.44771 16.0312 9 16.479 9 17.0312V19.0312C9 19.5835 9.44771 20.0312 10 20.0312C10.5523 20.0312 11 19.5835 11 19.0312V17.0312Z" fill="#1C61E7"></path><path d="M21 22.0312H3C2.44772 22.0312 2 21.5835 2 21.0312V3.03125C2 2.47897 2.44772 2.03125 3 2.03125H7C7.55228 2.03125 8 2.47897 8 3.03125V15.0312C8 15.5835 8.44772 16.0312 9 16.0312H21C21.5523 16.0312 22 16.479 22 17.0312V21.0312C22 21.5835 21.5523 22.0312 21 22.0312Z" stroke="#1C61E7" stroke-width="2"></path></svg>