<svg xmlns="http://www.w3.org/2000/svg" width="24" height="24" viewBox="0 0 24 24" fill="none"><path d="M9 2C9 1.44772 8.55228 1 8 1C7.44772 1 7 1.44772 7 2V3C7 3.55228 7.44772 4 8 4C8.55228 4 9 3.55228 9 3V2Z" fill="#1C61E7"></path><path d="M13 2C13 1.44772 12.5523 1 12 1C11.4477 1 11 1.44772 11 2V3C11 3.55228 11.4477 4 12 4C12.5523 4 13 3.55228 13 3V2Z" fill="#1C61E7"></path><path d="M17 2C17 1.44772 16.5523 1 16 1C15.4477 1 15 1.44772 15 2V3C15 3.55228 15.4477 4 16 4C16.5523 4 17 3.55228 17 3V2Z" fill="#1C61E7"></path><path d="M2 7C1.44772 7 1 7.44772 1 8C1 8.55228 1.44772 9 2 9H3C3.55228 9 4 8.55228 4 8C4 7.44772 3.55228 7 3 7H2Z" fill="#1C61E7"></path><path d="M21 7C20.4477 7 20 7.44772 20 8C20 8.55228 20.4477 9 21 9H22C22.5523 9 23 8.55228 23 8C23 7.44772 22.5523 7 22 7H21Z" fill="#1C61E7"></path><path d="M2 11C1.44772 11 1 11.4477 1 12C1 12.5523 1.44772 13 2 13H3C3.55228 13 4 12.5523 4 12C4 11.4477 3.55228 11 3 11H2Z" fill="#1C61E7"></path><path d="M21 11C20.4477 11 20 11.4477 20 12C20 12.5523 20.4477 13 21 13H22C22.5523 13 23 12.5523 23 12C23 11.4477 22.5523 11 22 11H21Z" fill="#1C61E7"></path><path d="M2 15C1.44772 15 1 15.4477 1 16C1 16.5523 1.44772 17 2 17H3C3.55228 17 4 16.5523 4 16C4 15.4477 3.55228 15 3 15H2Z" fill="#1C61E7"></path><path d="M21 15C20.4477 15 20 15.4477 20 16C20 16.5523 20.4477 17 21 17H22C22.5523 17 23 16.5523 23 16C23 15.4477 22.5523 15 22 15H21Z" fill="#1C61E7"></path><path d="M9 21C9 20.4477 8.55228 20 8 20C7.44772 20 7 20.4477 7 21V22C7 22.5523 7.44772 23 8 23C8.55228 23 9 22.5523 9 22V21Z" fill="#1C61E7"></path><path d="M13 21C13 20.4477 12.5523 20 12 20C11.4477 20 11 20.4477 11 21V22C11 22.5523 11.4477 23 12 23C12.5523 23 13 22.5523 13 22V21Z" fill="#1C61E7"></path><path d="M17 21C17 20.4477 16.5523 20 16 20C15.4477 20 15 20.4477 15 21V22C15 22.5523 15.4477 23 16 23C16.5523 23 17 22.5523 17 22V21Z" fill="#1C61E7"></path><path fill-rule="evenodd" clip-rule="evenodd" d="M7 5C5.89543 5 5 5.89543 5 7V17C5 18.1046 5.89543 19 7 19H17C18.1046 19 19 18.1046 19 17V7C19 5.89543 18.1046 5 17 5H7ZM7 7H17V17H7V7Z" fill="#1C61E7"></path></svg>