<svg xmlns="http://www.w3.org/2000/svg" width="24" height="24" viewBox="0 0 24 24" fill="none"><path d="M4 9C4 8.44772 4.44772 8 5 8H19C19.5523 8 20 8.44772 20 9V15C20 15.5523 19.5523 16 19 16H5C4.44772 16 4 15.5523 4 15V9Z" stroke="#1C61E7" stroke-width="2"></path><path d="M5 19C5 18.4477 4.55228 18 4 18C3.44772 18 3 18.4477 3 19V20C3 20.5523 3.44772 21 4 21C4.55228 21 5 20.5523 5 20V19Z" fill="#1C61E7"></path><path d="M9 19C9 18.4477 8.55229 18 8 18C7.44771 18 7 18.4477 7 19V20C7 20.5523 7.44771 21 8 21C8.55229 21 9 20.5523 9 20V19Z" fill="#1C61E7"></path><path d="M13 19C13 18.4477 12.5523 18 12 18C11.4477 18 11 18.4477 11 19V20C11 20.5523 11.4477 21 12 21C12.5523 21 13 20.5523 13 20V19Z" fill="#1C61E7"></path><path d="M17 19C17 18.4477 16.5523 18 16 18C15.4477 18 15 18.4477 15 19V20C15 20.5523 15.4477 21 16 21C16.5523 21 17 20.5523 17 20V19Z" fill="#1C61E7"></path><path d="M21 19C21 18.4477 20.5523 18 20 18C19.4477 18 19 18.4477 19 19V20C19 20.5523 19.4477 21 20 21C20.5523 21 21 20.5523 21 20V19Z" fill="#1C61E7"></path><path d="M5 4C5 3.44772 4.55228 3 4 3C3.44772 3 3 3.44772 3 4V5C3 5.55228 3.44772 6 4 6C4.55228 6 5 5.55228 5 5V4Z" fill="#1C61E7"></path><path d="M9 4C9 3.44772 8.55229 3 8 3C7.44771 3 7 3.44772 7 4V5C7 5.55228 7.44771 6 8 6C8.55229 6 9 5.55228 9 5V4Z" fill="#1C61E7"></path><path d="M13 4C13 3.44772 12.5523 3 12 3C11.4477 3 11 3.44772 11 4V5C11 5.55228 11.4477 6 12 6C12.5523 6 13 5.55228 13 5V4Z" fill="#1C61E7"></path><path d="M17 4C17 3.44772 16.5523 3 16 3C15.4477 3 15 3.44772 15 4V5C15 5.55228 15.4477 6 16 6C16.5523 6 17 5.55228 17 5V4Z" fill="#1C61E7"></path><path d="M21 4C21 3.44772 20.5523 3 20 3C19.4477 3 19 3.44772 19 4V5C19 5.55228 19.4477 6 20 6C20.5523 6 21 5.55228 21 5V4Z" fill="#1C61E7"></path></svg>