<svg xmlns="http://www.w3.org/2000/svg" width="24" height="24" viewBox="0 0 24 24" fill="none"><path d="M12 20.0303C11.4477 20.0303 11 19.5826 11 19.0303V13.0303H5C4.44772 13.0303 4 12.5826 4 12.0303C4 11.478 4.44772 11.0303 5 11.0303L11 11.0303V5.03027C11 4.47799 11.4477 4.03027 12 4.03027C12.5523 4.03027 13 4.47799 13 5.03027V11.0303L19 11.0303C19.5523 11.0303 20 11.478 20 12.0303C20 12.5826 19.5523 13.0303 19 13.0303H13V19.0303C13 19.5826 12.5523 20.0303 12 20.0303Z" fill="#90C947"></path></svg>