<svg xmlns="http://www.w3.org/2000/svg" width="32" height="33" viewBox="0 0 32 33" fill="none"><path fill-rule="evenodd" clip-rule="evenodd" d="M27 4.5H24L23 4.5L22.9993 4.5C22.4473 4.50038 22 4.94795 22 5.5L10 5.5C10 4.94812 9.55294 4.50065 9.00121 4.5H5C4.44772 4.5 4 4.94772 4 5.5V8.5L4 9.5L4 9.5007C4.00038 10.0527 4.44795 10.5 5 10.5V22.5C4.44795 22.5 4.00038 22.9473 4 23.4993L4 23.5L4 24.5V27.5C4 28.0523 4.44772 28.5 5 28.5H8H9C9.55229 28.5 10 28.0523 10 27.5L22 27.5C22 28.0523 22.4477 28.5 23 28.5H24H27C27.5523 28.5 28 28.0523 28 27.5L28 24.5V23.5C28 23.4993 28 23.4987 28 23.498C27.9989 22.9466 27.5516 22.5 27 22.5L27 10.5C27.5523 10.5 28 10.0523 28 9.5V8.5V5.5C28 4.94772 27.5523 4.5 27 4.5ZM5 2.5C3.34315 2.5 2 3.84315 2 5.5V27.5C2 29.1569 3.34315 30.5 5 30.5H27C28.6569 30.5 30 29.1569 30 27.5V5.5C30 3.84315 28.6569 2.5 27 2.5H5ZM7 9C7 8.17157 7.67157 7.5 8.5 7.5C9.32843 7.5 10 8.17157 10 9C10 9.82843 9.32843 10.5 8.5 10.5C7.67157 10.5 7 9.82843 7 9ZM13.5 7.5C12.6716 7.5 12 8.17157 12 9C12 9.82843 12.6716 10.5 13.5 10.5C14.3284 10.5 15 9.82843 15 9C15 8.17157 14.3284 7.5 13.5 7.5ZM17 9C17 8.17157 17.6716 7.5 18.5 7.5C19.3284 7.5 20 8.17157 20 9C20 9.82843 19.3284 10.5 18.5 10.5C17.6716 10.5 17 9.82843 17 9ZM23.5 7.5C22.6716 7.5 22 8.17157 22 9C22 9.82843 22.6716 10.5 23.5 10.5C24.3284 10.5 25 9.82843 25 9C25 8.17157 24.3284 7.5 23.5 7.5ZM7 14C7 13.1716 7.67157 12.5 8.5 12.5C9.32843 12.5 10 13.1716 10 14C10 14.8284 9.32843 15.5 8.5 15.5C7.67157 15.5 7 14.8284 7 14ZM13.5 12.5C12.6716 12.5 12 13.1716 12 14C12 14.8284 12.6716 15.5 13.5 15.5C14.3284 15.5 15 14.8284 15 14C15 13.1716 14.3284 12.5 13.5 12.5ZM17 14C17 13.1716 17.6716 12.5 18.5 12.5C19.3284 12.5 20 13.1716 20 14C20 14.8284 19.3284 15.5 18.5 15.5C17.6716 15.5 17 14.8284 17 14ZM23.5 12.5C22.6716 12.5 22 13.1716 22 14C22 14.8284 22.6716 15.5 23.5 15.5C24.3284 15.5 25 14.8284 25 14C25 13.1716 24.3284 12.5 23.5 12.5ZM7 19C7 18.1716 7.67157 17.5 8.5 17.5C9.32843 17.5 10 18.1716 10 19C10 19.8284 9.32843 20.5 8.5 20.5C7.67157 20.5 7 19.8284 7 19ZM13.5 17.5C12.6716 17.5 12 18.1716 12 19C12 19.8284 12.6716 20.5 13.5 20.5C14.3284 20.5 15 19.8284 15 19C15 18.1716 14.3284 17.5 13.5 17.5ZM17 19C17 18.1716 17.6716 17.5 18.5 17.5C19.3284 17.5 20 18.1716 20 19C20 19.8284 19.3284 20.5 18.5 20.5C17.6716 20.5 17 19.8284 17 19ZM23.5 17.5C22.6716 17.5 22 18.1716 22 19C22 19.8284 22.6716 20.5 23.5 20.5C24.3284 20.5 25 19.8284 25 19C25 18.1716 24.3284 17.5 23.5 17.5ZM7 24C7 23.1716 7.67157 22.5 8.5 22.5C9.32843 22.5 10 23.1716 10 24C10 24.8284 9.32843 25.5 8.5 25.5C7.67157 25.5 7 24.8284 7 24ZM13.5 22.5C12.6716 22.5 12 23.1716 12 24C12 24.8284 12.6716 25.5 13.5 25.5C14.3284 25.5 15 24.8284 15 24C15 23.1716 14.3284 22.5 13.5 22.5ZM17 24C17 23.1716 17.6716 22.5 18.5 22.5C19.3284 22.5 20 23.1716 20 24C20 24.8284 19.3284 25.5 18.5 25.5C17.6716 25.5 17 24.8284 17 24ZM23.5 22.5C22.6716 22.5 22 23.1716 22 24C22 24.8284 22.6716 25.5 23.5 25.5C24.3284 25.5 25 24.8284 25 24C25 23.1716 24.3284 22.5 23.5 22.5Z" fill="#76B900"></path></svg>