<svg xmlns="http://www.w3.org/2000/svg" width="32" height="33" viewBox="0 0 32 33" fill="none"><g clip-path="url(#clip0_9533_41937)"><path fill-rule="evenodd" clip-rule="evenodd" d="M16 2.5C12.6863 2.5 10 5.18629 10 8.5C10 11.8137 12.6863 14.5 16 14.5C19.3137 14.5 22 11.8137 22 8.5C22 5.18629 19.3137 2.5 16 2.5ZM8 8.5C8 4.08172 11.5817 0.5 16 0.5C20.4183 0.5 24 4.08172 24 8.5C24 10.7759 23.0496 12.8299 21.5241 14.2866L28.3162 16.5507C28.7246 16.6868 29 17.0689 29 17.4993C29 17.9298 28.7246 18.3119 28.3162 18.448L23.6613 19.9997L28.3162 21.5513C28.7246 21.6874 29 22.0696 29 22.5C29 22.9304 28.7246 23.3126 28.3162 23.4487L23.6623 25L28.3162 26.5513C28.7246 26.6874 29 27.0696 29 27.5C29 27.9304 28.7246 28.3126 28.3162 28.4487L17.2649 32.1325C16.4438 32.4061 15.5562 32.4061 14.7351 32.1325L3.68377 28.4487C3.27543 28.3126 3 27.9304 3 27.5C3 27.0696 3.27543 26.6874 3.68377 26.5513L8.33772 25L3.68377 23.4487C3.27543 23.3126 3 22.9304 3 22.5C3 22.0696 3.27543 21.6874 3.68377 21.5513L8.3387 19.9997L3.68377 18.448C3.27543 18.3119 3 17.9298 3 17.4993C3 17.0689 3.27543 16.6868 3.68377 16.5507L10.4759 14.2866C8.95038 12.8299 8 10.7759 8 8.5ZM16 16.5C17.2434 16.5 18.4205 16.2163 19.4702 15.7102L24.8377 17.4993L16.6325 20.2344C16.2219 20.3713 15.7781 20.3713 15.3675 20.2344L7.16228 17.4993L12.5298 15.7102C13.5795 16.2163 14.7566 16.5 16 16.5ZM20.499 21.0538L17.2649 22.1318C16.4438 22.4055 15.5562 22.4055 14.7351 22.1318L11.501 21.0538L7.16228 22.5L15.3675 25.2351C15.7781 25.3719 16.2219 25.3719 16.6325 25.2351L24.8377 22.5L20.499 21.0538ZM17.2649 27.1325L20.5 26.0541L24.8377 27.5L16.6325 30.2351C16.2219 30.3719 15.7781 30.3719 15.3675 30.2351L7.16228 27.5L11.5 26.0541L14.7351 27.1325C15.5562 27.4061 16.4438 27.4061 17.2649 27.1325ZM19.7071 7.20711C20.0976 6.81658 20.0976 6.18342 19.7071 5.79289C19.3166 5.40237 18.6834 5.40237 18.2929 5.79289L15 9.08579L13.7071 7.79289C13.3166 7.40237 12.6834 7.40237 12.2929 7.79289C11.9024 8.18342 11.9024 8.81658 12.2929 9.20711L13.5858 10.5C14.3668 11.281 15.6332 11.281 16.4142 10.5L19.7071 7.20711Z" fill="#76B900"></path></g><defs><clipPath id="clip0_9533_41937"><rect width="32" height="32" fill="white" transform="translate(0 0.5)"></rect></clipPath></defs></svg>