<svg xmlns="http://www.w3.org/2000/svg" width="24" height="24" viewBox="0 0 24 24" fill="none"><path d="M4 21H3C3 21.5523 3.44772 22 4 22V21ZM20 21V22C20.5523 22 21 21.5523 21 21H20ZM4 22H20V20H4V22ZM21 21V13H19V21H21ZM3 13V21H5V13H3Z" fill="#1C61E7"></path><path d="M7.66671 10.666C7.66671 10.1137 7.21899 9.66602 6.66671 9.66602C6.11442 9.66602 5.66671 10.1137 5.66671 10.666H7.66671ZM13 10.666C13 10.1137 12.5523 9.66602 12 9.66602C11.4478 9.66602 11 10.1137 11 10.666H13ZM18.3334 10.666C18.3334 10.1137 17.8857 9.66602 17.3334 9.66602C16.7811 9.66602 16.3334 10.1137 16.3334 10.666H18.3334ZM22.6667 10.666H23.6667C23.6667 10.5542 23.6479 10.4431 23.6112 10.3375L22.6667 10.666ZM1.33337 10.666L0.388884 10.3375C0.352138 10.4431 0.333374 10.5542 0.333374 10.666H1.33337ZM4 3V2C3.57435 2 3.19535 2.26944 3.05551 2.67146L4 3ZM20 3L20.9445 2.67145C20.8046 2.26943 20.4256 2 20 2V3ZM5.66671 10.666C5.66671 11.5865 4.92052 12.3327 4.00004 12.3327V14.3327C6.02508 14.3327 7.66671 12.6911 7.66671 10.666H5.66671ZM5.66671 10.666C5.66671 12.6911 7.30833 14.3327 9.33337 14.3327V12.3327C8.4129 12.3327 7.66671 11.5865 7.66671 10.666H5.66671ZM9.33337 14.3327C11.3584 14.3327 13 12.6911 13 10.666H11C11 11.5865 10.2538 12.3327 9.33337 12.3327V14.3327ZM14.6667 12.3327C13.7462 12.3327 13 11.5865 13 10.666H11C11 12.6911 12.6417 14.3327 14.6667 14.3327V12.3327ZM16.3334 10.666C16.3334 11.5865 15.5872 12.3327 14.6667 12.3327V14.3327C16.6918 14.3327 18.3334 12.6911 18.3334 10.666H16.3334ZM20 12.3327C19.0796 12.3327 18.3334 11.5865 18.3334 10.666H16.3334C16.3334 12.6911 17.975 14.3327 20 14.3327V12.3327ZM21.6667 10.666C21.6667 11.5865 20.9205 12.3327 20 12.3327V14.3327C22.0251 14.3327 23.6667 12.6911 23.6667 10.666H21.6667ZM4.00004 12.3327C3.07957 12.3327 2.33337 11.5865 2.33337 10.666H0.333374C0.333374 12.6911 1.975 14.3327 4.00004 14.3327V12.3327ZM4 4H20V2H4V4ZM2.27786 10.9946L4.94449 3.32854L3.05551 2.67146L0.388884 10.3375L2.27786 10.9946ZM19.0555 3.32855L21.7222 10.9946L23.6112 10.3375L20.9445 2.67145L19.0555 3.32855Z" fill="#1C61E7"></path></svg>