<svg xmlns="http://www.w3.org/2000/svg" width="24" height="24" viewBox="0 0 24 24" fill="none"><path d="M3 8C3 7.44772 3.44772 7 4 7H20C20.5523 7 21 7.44772 21 8V16C21 16.5523 20.5523 17 20 17H4C3.44772 17 3 16.5523 3 16V14C4.10457 14 5 13.1046 5 12C5 10.8954 4.10457 10 3 10V8Z" stroke="#1C61E7" stroke-width="2"></path><path d="M14 11C14 10.4477 13.5523 10 13 10C12.4477 10 12 10.4477 12 11V13C12 13.5523 12.4477 14 13 14C13.5523 14 14 13.5523 14 13V11Z" fill="#1C61E7"></path><path d="M18 11C18 10.4477 17.5523 10 17 10C16.4477 10 16 10.4477 16 11V13C16 13.5523 16.4477 14 17 14C17.5523 14 18 13.5523 18 13V11Z" fill="#1C61E7"></path><path d="M10 11C10 10.4477 9.55229 10 9 10C8.44771 10 8 10.4477 8 11V13C8 13.5523 8.44771 14 9 14C9.55229 14 10 13.5523 10 13V11Z" fill="#1C61E7"></path></svg>