<svg xmlns="http://www.w3.org/2000/svg" width="24" height="24" viewBox="0 0 24 24" fill="none"><path d="M2 7.03125C2 6.47897 2.44772 6.03125 3 6.03125H21C21.5523 6.03125 22 6.47897 22 7.03125V17.0312C22 17.5835 21.5523 18.0312 21 18.0312H3C2.44772 18.0312 2 17.5835 2 17.0312V7.03125Z" stroke="#1C61E7" stroke-width="2"></path><path d="M9 19C9 18.4477 8.55229 18 8 18C7.44771 18 7 18.4477 7 19V20C7 20.5523 7.44771 21 8 21C8.55229 21 9 20.5523 9 20V19Z" fill="#1C61E7"></path><path d="M13 19C13 18.4477 12.5523 18 12 18C11.4477 18 11 18.4477 11 19V20C11 20.5523 11.4477 21 12 21C12.5523 21 13 20.5523 13 20V19Z" fill="#1C61E7"></path><path d="M17 19C17 18.4477 16.5523 18 16 18C15.4477 18 15 18.4477 15 19V20C15 20.5523 15.4477 21 16 21C16.5523 21 17 20.5523 17 20V19Z" fill="#1C61E7"></path><path d="M21 19C21 18.4477 20.5523 18 20 18C19.4477 18 19 18.4477 19 19V20C19 20.5523 19.4477 21 20 21C20.5523 21 21 20.5523 21 20V19Z" fill="#1C61E7"></path><circle cx="16" cy="12.0312" r="3" stroke="#1C61E7" stroke-width="2"></circle><path d="M5 8.03125C4.44772 8.03125 4 8.47896 4 9.03125C4 9.58354 4.44772 10.0312 5 10.0312L10 10.0312C10.5523 10.0312 11 9.58353 11 9.03125C11 8.47896 10.5523 8.03125 10 8.03125L5 8.03125Z" fill="#1C61E7"></path></svg>