<svg xmlns="http://www.w3.org/2000/svg" width="24" height="24" viewBox="0 0 24 24" fill="none"><rect width="24" height="24" fill="white"></rect><path d="M10.7071 11.2929C10.3166 10.9024 9.68342 10.9024 9.29289 11.2929C8.90237 11.6834 8.90237 12.3166 9.29289 12.7071L10.7071 11.2929ZM12 14L11.2929 14.7071C11.4979 14.9121 11.7817 15.018 12.0709 14.9975C12.3601 14.9769 12.6261 14.8319 12.8 14.6L12 14ZM15.8 10.6C16.1314 10.1582 16.0418 9.53137 15.6 9.2C15.1582 8.86863 14.5314 8.95817 14.2 9.4L15.8 10.6ZM11.7871 21.9419L11.4991 22.8995L11.7871 21.9419ZM12.2129 21.9419L11.925 20.9843L12.2129 21.9419ZM3.99571 5.92448L3.85185 4.93488L3.99571 5.92448ZM20.0014 5.94771L19.8981 6.94236L20.0014 5.94771ZM4.13957 6.91407C7.2449 6.46263 10.5043 4.32107 11.8665 3.34707L10.7033 1.72016C9.34125 2.69401 6.43101 4.55993 3.85185 4.93488L4.13957 6.91407ZM12.0263 3.36283C13.2904 4.41553 16.2531 6.56376 19.8981 6.94236L20.1047 4.95307C17.0617 4.637 14.4792 2.80286 13.3062 1.82598L12.0263 3.36283ZM2.01639 7.03767C2.21294 13.1797 4.15049 17.0467 6.30352 19.441C8.44234 21.8195 10.7223 22.6659 11.4991 22.8995L12.075 20.9843C11.5273 20.8196 9.61143 20.1285 7.79068 18.1037C5.98415 16.0947 4.19838 12.6928 4.01537 6.9737L2.01639 7.03767ZM12.5009 22.8995C13.2777 22.6659 15.5577 21.8195 17.6965 19.441C19.8495 17.0467 21.7871 13.1797 21.9836 7.03767L19.9846 6.9737C19.8016 12.6928 18.0158 16.0947 16.2093 18.1037C14.3886 20.1285 12.4727 20.8196 11.925 20.9843L12.5009 22.8995ZM9.29289 12.7071L11.2929 14.7071L12.7071 13.2929L10.7071 11.2929L9.29289 12.7071ZM12.8 14.6L15.8 10.6L14.2 9.4L11.2 13.4L12.8 14.6ZM11.8665 3.34707C11.88 3.33742 11.9032 3.32789 11.9373 3.32949C11.9723 3.33113 12.0038 3.34411 12.0263 3.36283L13.3062 1.82598C12.5782 1.21973 11.5015 1.1494 10.7033 1.72016L11.8665 3.34707ZM11.4991 22.8995C11.8271 22.9982 12.1729 22.9982 12.5009 22.8995L11.925 20.9843C11.9726 20.9699 12.0274 20.9699 12.075 20.9843L11.4991 22.8995ZM3.85185 4.93488C2.90078 5.07314 1.97944 5.88289 2.01639 7.03767L4.01537 6.9737C4.01551 6.97813 4.01436 6.98341 4.01336 6.98591C4.01284 6.9872 4.01497 6.98122 4.02483 6.97067C4.04742 6.9465 4.08932 6.92138 4.13957 6.91407L3.85185 4.93488ZM19.8981 6.94236C19.9349 6.94619 19.9651 6.96375 19.9809 6.98041C19.9877 6.98751 19.9883 6.99078 19.9872 6.98788C19.9856 6.98389 19.9845 6.978 19.9846 6.9737L21.9836 7.03767C22.0205 5.88511 21.0963 5.05606 20.1047 4.95307L19.8981 6.94236Z" fill="#1C61E7"></path></svg>