<svg xmlns="http://www.w3.org/2000/svg" width="25" height="25" viewBox="0 0 25 25" fill="none"><g clip-path="url(#clip0_9565_5256)"><path d="M6.0126 0.5C5.41885 0.5 4.87197 0.664062 4.37197 0.992188C3.87197 1.30469 3.50479 1.73438 3.27041 2.28125L1.02041 7.32031C0.817285 7.75781 0.700098 8.21875 0.668848 8.70312C0.653223 9.17188 0.715723 9.64062 0.856348 10.1094L0.879785 10.1797C0.98916 10.5547 1.15322 10.9062 1.37197 11.2344C1.60635 11.5469 1.87197 11.8203 2.16885 12.0547V21.5C2.16885 22.3281 2.45791 23.0312 3.03604 23.6094C3.62979 24.2031 4.34072 24.5 5.16885 24.5H7.41885C8.24697 24.5 8.9501 24.2031 9.52822 23.6094C10.122 23.0312 10.4188 22.3281 10.4188 21.5V17C10.4188 16.7969 10.4892 16.625 10.6298 16.4844C10.786 16.3281 10.9657 16.25 11.1688 16.25H14.1688C14.372 16.25 14.5438 16.3281 14.6845 16.4844C14.8407 16.625 14.9188 16.7969 14.9188 17V21.5C14.9188 22.3281 15.2079 23.0312 15.786 23.6094C16.3798 24.2031 17.0907 24.5 17.9188 24.5H20.1688C20.997 24.5 21.7001 24.2031 22.2782 23.6094C22.872 23.0312 23.1688 22.3281 23.1688 21.5V12.0547C23.4657 11.8203 23.7235 11.5469 23.9423 11.2344C24.1767 10.9062 24.3485 10.5547 24.4579 10.1797L24.4813 10.1094C24.622 9.64062 24.6767 9.17188 24.6454 8.70312C24.6298 8.21875 24.5204 7.75781 24.3173 7.32031L22.0673 2.28125C21.8329 1.73438 21.4657 1.30469 20.9657 0.992188C20.4657 0.664062 19.9188 0.5 19.3251 0.5H6.0126ZM5.33291 3.19531C5.39541 3.05469 5.48135 2.94531 5.59072 2.86719C5.71572 2.78906 5.85635 2.75 6.0126 2.75H19.3251C19.4813 2.75 19.6142 2.78906 19.7235 2.86719C19.8485 2.94531 19.9423 3.05469 20.0048 3.19531L22.2782 8.23438C22.3563 8.42188 22.4032 8.625 22.4188 8.84375C22.4345 9.04688 22.411 9.24219 22.3485 9.42969L22.3251 9.5C22.2157 9.84375 22.0204 10.1172 21.7392 10.3203C21.4579 10.5234 21.1454 10.625 20.8017 10.625C20.4267 10.625 20.0907 10.5156 19.7938 10.2969C19.5126 10.0625 19.3329 9.76562 19.2548 9.40625L19.0204 8.46875C18.9579 8.21875 18.8251 8.01562 18.622 7.85938C18.4188 7.70312 18.1845 7.625 17.9188 7.625C17.6532 7.625 17.4188 7.70312 17.2157 7.85938C17.0126 8.01562 16.8798 8.21875 16.8173 8.46875L16.536 9.66406C16.4579 9.94531 16.3017 10.1797 16.0673 10.3672C15.8485 10.5391 15.5907 10.625 15.2938 10.625C14.997 10.625 14.7313 10.5391 14.497 10.3672C14.2782 10.1797 14.1298 9.94531 14.0517 9.66406L13.7704 8.46875C13.7079 8.21875 13.5751 8.01562 13.372 7.85938C13.1688 7.70312 12.9345 7.625 12.6688 7.625C12.4032 7.625 12.1688 7.70312 11.9657 7.85938C11.7626 8.01562 11.6298 8.21875 11.5673 8.46875L11.286 9.66406C11.2079 9.94531 11.0517 10.1797 10.8173 10.3672C10.5985 10.5391 10.3407 10.625 10.0438 10.625C9.74697 10.625 9.48135 10.5391 9.24697 10.3672C9.02822 10.1797 8.87979 9.94531 8.80166 9.66406L8.52041 8.46875C8.45791 8.21875 8.3251 8.01562 8.12197 7.85938C7.91885 7.70312 7.68447 7.625 7.41885 7.625C7.15322 7.625 6.91885 7.70312 6.71572 7.85938C6.5126 8.01562 6.37979 8.21875 6.31729 8.46875L6.08291 9.40625C6.00479 9.76562 5.81729 10.0625 5.52041 10.2969C5.23916 10.5156 4.91104 10.625 4.53604 10.625C4.19229 10.625 3.87979 10.5234 3.59854 10.3203C3.31729 10.1172 3.12197 9.84375 3.0126 9.5L2.98916 9.42969C2.92666 9.24219 2.90322 9.04688 2.91885 8.84375C2.93447 8.625 2.98135 8.42188 3.05947 8.23438L5.33291 3.19531ZM20.9188 12.875V21.5C20.9188 21.7031 20.8407 21.8828 20.6845 22.0391C20.5438 22.1797 20.372 22.25 20.1688 22.25H17.9188C17.7157 22.25 17.536 22.1797 17.3798 22.0391C17.2392 21.8828 17.1688 21.7031 17.1688 21.5V17C17.1688 16.1719 16.872 15.4688 16.2782 14.8906C15.7001 14.2969 14.997 14 14.1688 14H11.1688C10.3407 14 9.62979 14.2969 9.03604 14.8906C8.45791 15.4688 8.16885 16.1719 8.16885 17V21.5C8.16885 21.7031 8.09072 21.8828 7.93447 22.0391C7.79385 22.1797 7.62197 22.25 7.41885 22.25H5.16885C4.96572 22.25 4.78604 22.1797 4.62979 22.0391C4.48916 21.8828 4.41885 21.7031 4.41885 21.5V12.875C4.43447 12.875 4.4501 12.875 4.46572 12.875C4.49697 12.875 4.52041 12.875 4.53604 12.875C5.09854 12.875 5.62197 12.7656 6.10635 12.5469C6.59072 12.3281 7.0126 12.0234 7.37197 11.6328C7.7001 12.0234 8.09072 12.3281 8.54385 12.5469C9.0126 12.7656 9.5126 12.875 10.0438 12.875C10.5595 12.875 11.0438 12.7734 11.497 12.5703C11.9501 12.3516 12.3407 12.0625 12.6688 11.7031C12.997 12.0625 13.3876 12.3516 13.8407 12.5703C14.2938 12.7734 14.7782 12.875 15.2938 12.875C15.8251 12.875 16.3173 12.7656 16.7704 12.5469C17.2392 12.3281 17.6376 12.0234 17.9657 11.6328C18.3251 12.0234 18.747 12.3281 19.2313 12.5469C19.7157 12.7656 20.2392 12.875 20.8017 12.875C20.8173 12.875 20.8329 12.875 20.8485 12.875C20.8798 12.875 20.9032 12.875 20.9188 12.875Z" fill="white"></path></g><defs><clipPath id="clip0_9565_5256"><rect width="24" height="24" fill="white" transform="translate(0.666504 0.5)"></rect></clipPath></defs></svg>