<svg xmlns="http://www.w3.org/2000/svg" width="25" height="25" viewBox="0 0 25 25" fill="none"><g clip-path="url(#clip0_9565_5261)"><path fill-rule="evenodd" clip-rule="evenodd" d="M12.3335 8.5C11.238 8.5 10.2744 8.89489 9.50139 9.66789C8.72839 10.4409 8.3335 11.4045 8.3335 12.5C8.3335 13.5955 8.72839 14.5591 9.50139 15.3321C10.2744 16.1051 11.238 16.5 12.3335 16.5C13.429 16.5 14.3926 16.1051 15.1656 15.3321C15.9386 14.5591 16.3335 13.5955 16.3335 12.5C16.3335 11.4045 15.9386 10.4409 15.1656 9.66789C14.3926 8.89489 13.429 8.5 12.3335 8.5ZM10.9156 11.0821C11.3093 10.6884 11.7624 10.5 12.3335 10.5C12.9046 10.5 13.3577 10.6884 13.7514 11.0821C14.1451 11.4758 14.3335 11.9289 14.3335 12.5C14.3335 13.0711 14.1451 13.5242 13.7514 13.9179C13.3577 14.3116 12.9046 14.5 12.3335 14.5C11.7624 14.5 11.3093 14.3116 10.9156 13.9179C10.5219 13.5242 10.3335 13.0711 10.3335 12.5C10.3335 11.9289 10.5219 11.4758 10.9156 11.0821Z" fill="white"></path><path fill-rule="evenodd" clip-rule="evenodd" d="M11.2515 0.5C10.6276 0.5 10.0763 0.742552 9.64278 1.17609C9.21137 1.6075 8.98923 2.15635 8.98923 2.7623V3.48361C8.98923 3.4867 8.98912 3.49209 8.98482 3.50422C8.98054 3.51628 8.96998 3.54067 8.94473 3.57719C8.89368 3.63832 8.8198 3.69956 8.70323 3.7545C8.59445 3.79385 8.50092 3.80535 8.41476 3.79961C8.35243 3.78571 8.32619 3.76496 8.307 3.74576L7.81109 3.24986C7.37086 2.80963 6.81037 2.59631 6.20235 2.59631C5.59641 2.59631 5.04755 2.81845 4.61614 3.24986L3.08336 4.78265C2.64312 5.22288 2.42981 5.78338 2.42981 6.39139C2.42981 6.99734 2.65195 7.54619 3.08336 7.9776L3.57926 8.4735C3.58912 8.48336 3.59226 8.48917 3.59432 8.49358C3.59674 8.49876 3.60393 8.51589 3.60806 8.55305L3.61106 8.58014L3.61554 8.60702C3.62843 8.68433 3.62441 8.76694 3.58791 8.86978C3.53607 8.97826 3.4738 9.04871 3.40197 9.10138L3.38857 9.11121L3.37551 9.12147C3.34357 9.14656 3.32572 9.15359 3.32223 9.15487L3.31995 9.15561C3.31981 9.15563 3.31977 9.15565 3.31995 9.15561C3.32033 9.15554 3.3196 9.15574 3.3171 9.15574H2.59579C1.97186 9.15574 1.42058 9.39829 0.987045 9.83183C0.555634 10.2632 0.333496 10.8121 0.333496 11.418V13.582C0.333496 14.1866 0.553843 14.7311 0.965952 15.169L0.98672 15.191L1.00879 15.2118C1.44665 15.6239 1.99121 15.8443 2.59579 15.8443H3.3171C3.3196 15.8443 3.3203 15.8444 3.31992 15.8444C3.31954 15.8443 3.32013 15.8444 3.32223 15.8451C3.32572 15.8464 3.34357 15.8534 3.37551 15.8785L3.38857 15.8888L3.40197 15.8986C3.4738 15.9513 3.53607 16.0217 3.58791 16.1302C3.62441 16.2331 3.62843 16.3157 3.61554 16.393L3.61106 16.4199L3.60806 16.4469C3.60393 16.4841 3.59674 16.5012 3.59432 16.5064C3.59226 16.5108 3.58912 16.5166 3.57926 16.5265L3.08336 17.0224C2.64312 17.4626 2.42981 18.0231 2.42981 18.6311C2.42981 19.2371 2.65195 19.7859 3.08336 20.2174L4.61614 21.7501C5.04755 22.1816 5.59641 22.4037 6.20235 22.4037C6.81037 22.4037 7.37086 22.1904 7.81109 21.7501L8.307 21.2542C8.31686 21.2444 8.32267 21.2412 8.32708 21.2392C8.33226 21.2368 8.34939 21.2296 8.38655 21.2254L8.41364 21.2224L8.44052 21.218C8.51783 21.2051 8.60044 21.2091 8.70328 21.2456C8.81176 21.2974 8.8822 21.3597 8.93488 21.4315L8.9447 21.4449L8.95496 21.458C8.98006 21.4899 8.98709 21.5078 8.98837 21.5113C8.98914 21.5134 8.98918 21.514 8.98911 21.5136C8.98905 21.5132 8.98923 21.5139 8.98923 21.5164V22.2377C8.98923 22.8436 9.21137 23.3925 9.64278 23.8239C10.0763 24.2574 10.6276 24.5 11.2515 24.5H13.4155C14.0313 24.5 14.5785 24.2629 15.0019 23.8241C15.4407 23.4007 15.6778 22.8535 15.6778 22.2377V21.5164C15.6778 21.5139 15.6779 21.5132 15.6779 21.5136C15.6778 21.514 15.6779 21.5134 15.6786 21.5113C15.6799 21.5078 15.6869 21.4899 15.712 21.458L15.7223 21.4449L15.7321 21.4315C15.7848 21.3597 15.8552 21.2974 15.9637 21.2456C16.0666 21.2091 16.1492 21.2051 16.2265 21.218L16.2534 21.2224L16.2804 21.2254C16.3176 21.2296 16.3347 21.2368 16.3399 21.2392C16.3443 21.2412 16.3501 21.2444 16.36 21.2542L16.8559 21.7501C17.2873 22.1816 17.8362 22.4037 18.4421 22.4037C19.0501 22.4037 19.6106 22.1904 20.0508 21.7501L21.5836 20.2174C22.015 19.7859 22.2372 19.2371 22.2372 18.6311C22.2372 18.0231 22.0239 17.4626 21.5836 17.0224L21.0877 16.5265C21.0685 16.5073 21.0478 16.4811 21.0339 16.4187C21.0282 16.3326 21.0396 16.239 21.079 16.1303C21.1339 16.0137 21.1952 15.9398 21.2563 15.8888C21.2928 15.8635 21.3172 15.853 21.3293 15.8487C21.3414 15.8444 21.3468 15.8443 21.3499 15.8443H22.0712C22.6771 15.8443 23.226 15.6221 23.6574 15.1907C24.0909 14.7572 24.3335 14.2059 24.3335 13.582V11.418C24.3335 10.8022 24.0964 10.255 23.6576 9.83164C23.2342 9.39283 22.687 9.15574 22.0712 9.15574H21.3499C21.3468 9.15574 21.3414 9.15563 21.3293 9.15132C21.3172 9.14704 21.2928 9.13649 21.2563 9.11123C21.1952 9.06019 21.1339 8.98631 21.079 8.86974C21.0396 8.76096 21.0282 8.66743 21.0339 8.58126C21.0478 8.51894 21.0685 8.49269 21.0877 8.4735L21.5836 7.9776C22.015 7.54619 22.2372 6.99734 22.2372 6.39139C22.2372 5.78338 22.0239 5.22288 21.5836 4.78265L20.0508 3.24986C19.6106 2.80963 19.0501 2.59631 18.4421 2.59631C17.8362 2.59631 17.2873 2.81845 16.8559 3.24986L16.36 3.74576C16.3408 3.76496 16.3146 3.78571 16.2522 3.79961C16.1661 3.80535 16.0725 3.79385 15.9638 3.7545C15.8472 3.69956 15.7733 3.63833 15.7223 3.5772C15.697 3.54067 15.6865 3.51628 15.6822 3.50422C15.6779 3.49209 15.6778 3.4867 15.6778 3.48361V2.7623C15.6778 2.14646 15.4407 1.59927 15.0019 1.1759C14.5785 0.737092 14.0313 0.5 13.4155 0.5H11.2515ZM11.057 2.5903C11.1344 2.51291 11.1842 2.5 11.2515 2.5H13.4155C13.4807 2.5 13.5117 2.51047 13.5664 2.56856L13.5871 2.59063L13.6092 2.6114C13.6673 2.66607 13.6778 2.69705 13.6778 2.7623V3.48361C13.6778 3.96996 13.8494 4.40569 14.1193 4.77374L14.1291 4.78714L14.1394 4.8002C14.4158 5.15195 14.7699 5.41284 15.1733 5.59209L15.1949 5.6017L15.217 5.61028C15.6275 5.76995 16.0599 5.83391 16.5013 5.78487L16.5284 5.78186L16.5553 5.77738C17.015 5.70076 17.4352 5.49898 17.7742 5.15998L18.2701 4.66407C18.3196 4.61461 18.3568 4.59631 18.4421 4.59631C18.5554 4.59631 18.596 4.62343 18.6366 4.66407L20.1694 6.19686C20.2101 6.2375 20.2372 6.2781 20.2372 6.39139C20.2372 6.47671 20.2189 6.51392 20.1694 6.56339L19.6735 7.05929C19.3345 7.39829 19.1327 7.81849 19.0561 8.27822L19.0516 8.30511L19.0486 8.33219C18.9996 8.77358 19.0635 9.20598 19.2232 9.61654L19.2318 9.63861L19.2414 9.66024C19.4207 10.0636 19.6815 10.4177 20.0333 10.6941L20.0464 10.7044L20.0598 10.7142C20.4278 10.9841 20.8635 11.1557 21.3499 11.1557H22.0712C22.1364 11.1557 22.1674 11.1662 22.2221 11.2243L22.2429 11.2464L22.2649 11.2671C22.323 11.3218 22.3335 11.3528 22.3335 11.418V13.582C22.3335 13.6493 22.3206 13.6991 22.2432 13.7765C22.1937 13.826 22.1565 13.8443 22.0712 13.8443H21.3499C20.8635 13.8443 20.4278 14.0159 20.0598 14.2858L20.0464 14.2956L20.0333 14.3059C19.6815 14.5823 19.4207 14.9364 19.2414 15.3398L19.2318 15.3614L19.2232 15.3835C19.0635 15.794 18.9996 16.2264 19.0486 16.6678L19.0516 16.6949L19.0561 16.7218C19.1327 17.1815 19.3345 17.6017 19.6735 17.9407L20.1694 18.4366C20.2101 18.4773 20.2372 18.5179 20.2372 18.6311C20.2372 18.7165 20.2189 18.7537 20.1694 18.8031L18.6366 20.3359C18.596 20.3766 18.5554 20.4037 18.4421 20.4037C18.3568 20.4037 18.3196 20.3854 18.2701 20.3359L17.7742 19.84C17.4288 19.4946 16.998 19.2985 16.5286 19.2409C16.0795 19.1709 15.6365 19.2266 15.217 19.3897L15.1949 19.3983L15.1733 19.4079C14.7582 19.5924 14.4023 19.8679 14.129 20.2356C13.848 20.5985 13.6778 21.0325 13.6778 21.5164V22.2377C13.6778 22.3029 13.6673 22.3339 13.6092 22.3886L13.5871 22.4094L13.5664 22.4314C13.5117 22.4895 13.4807 22.5 13.4155 22.5H11.2515C11.1842 22.5 11.1344 22.4871 11.057 22.4097C11.0075 22.3602 10.9892 22.323 10.9892 22.2377V21.5164C10.9892 21.0325 10.819 20.5985 10.538 20.2356C10.2648 19.8679 9.90879 19.5924 9.49373 19.4079L9.4721 19.3983L9.45004 19.3897C9.03048 19.2266 8.5875 19.1709 8.13834 19.2409C7.66904 19.2985 7.23818 19.4946 6.89278 19.84L6.39688 20.3359C6.35624 20.3766 6.31564 20.4037 6.20235 20.4037C6.11704 20.4037 6.07982 20.3854 6.03036 20.3359L4.49757 18.8031C4.44811 18.7537 4.42981 18.7165 4.42981 18.6311C4.42981 18.5179 4.45693 18.4773 4.49757 18.4366L4.99347 17.9407C5.33887 17.5953 5.53495 17.1645 5.59262 16.6952C5.66256 16.246 5.60694 15.803 5.44378 15.3835L5.4352 15.3614L5.42559 15.3398C5.24113 14.9247 4.96558 14.5688 4.59792 14.2956C4.23504 14.0145 3.80105 13.8443 3.3171 13.8443H2.59579C2.51827 13.8443 2.46486 13.8282 2.40216 13.7756C2.34957 13.7129 2.3335 13.6595 2.3335 13.582V11.418C2.3335 11.3327 2.3518 11.2955 2.40126 11.246C2.47865 11.1687 2.52847 11.1557 2.59579 11.1557H3.3171C3.80104 11.1557 4.23501 10.9855 4.59789 10.7045C4.96556 10.4312 5.24112 10.0753 5.42559 9.66024L5.4352 9.63861L5.44378 9.61654C5.60694 9.19698 5.66256 8.754 5.59262 8.30483C5.53495 7.83554 5.33887 7.40468 4.99347 7.05929L4.49757 6.56339C4.44811 6.51392 4.42981 6.47671 4.42981 6.39139C4.42981 6.2781 4.45693 6.2375 4.49757 6.19686L6.03036 4.66407C6.07982 4.61461 6.11704 4.59631 6.20235 4.59631C6.31564 4.59631 6.35624 4.62343 6.39688 4.66407L6.89278 5.15998C7.23179 5.49898 7.65199 5.70076 8.11172 5.77738L8.1386 5.78186L8.16569 5.78487C8.60708 5.83391 9.03948 5.76995 9.45004 5.61028L9.4721 5.6017L9.49373 5.59209C9.89705 5.41284 10.2512 5.15195 10.5276 4.8002L10.5379 4.78714L10.5477 4.77374C10.8176 4.40569 10.9892 3.96996 10.9892 3.48361V2.7623C10.9892 2.67698 11.0075 2.63977 11.057 2.5903Z" fill="white"></path></g><defs><clipPath id="clip0_9565_5261"><rect width="24" height="24" fill="white" transform="translate(0.333496 0.5)"></rect></clipPath></defs></svg>