<svg width="32" height="32" viewBox="0 0 32 32" fill="none" xmlns="http://www.w3.org/2000/svg">
<g clip-path="url(#clip0_4077_21629)">
<path d="M4.30006 -1.62572e-05H27.7998C28.3578 0.00649097 28.9092 0.122532 29.4224 0.341483C29.9355 0.560432 30.4003 0.878001 30.7904 1.27605C31.1804 1.67411 31.4879 2.14485 31.6954 2.6614C31.9029 3.17794 32.0063 3.73018 31.9997 4.28656V27.7132C32.0037 28.2772 31.8952 28.8365 31.6805 29.3583C31.4658 29.8802 31.1492 30.3543 30.7492 30.7532C30.3491 31.152 29.8735 31.4675 29.35 31.6816C28.8265 31.8956 28.2655 32.0038 27.6998 31.9998H4.30006C3.15218 31.9687 2.0615 31.4936 1.25892 30.6748C0.456346 29.8562 0.00487903 28.7582 0.000106142 27.6135V4.28656C-0.00388312 3.72253 0.104615 3.16333 0.319294 2.64147C0.533974 2.1196 0.850555 1.64547 1.25063 1.24663C1.65072 0.847788 2.12633 0.532192 2.64983 0.31818C3.17332 0.104167 3.73426 -0.00399313 4.30006 -1.62572e-05Z" fill="#1D1D1D"/>
<g opacity="0.05">
<path d="M8.60865 16.0873C8.57879 16.0577 8.54809 16.0252 8.51655 15.9893C7.77551 15.148 2.03238 7.57615 4.71868 4.86522C6.5673 2.99966 11.0918 4.85273 15.8168 8.53561C18.1134 6.45388 24.7544 2.27563 27.2278 4.77176C29.4202 6.98424 26.5589 12.2136 23.4484 15.9893C26.559 19.765 29.4204 24.9945 27.228 27.207C24.7769 29.6805 18.2333 25.5999 15.8803 23.5001C11.1323 27.2564 6.57546 29.1098 4.71854 27.3005C2.03224 24.683 7.68273 17.0177 8.51641 16.1763C8.54851 16.1439 8.57924 16.1143 8.60865 16.0873ZM8.14567 8.32406C8.10488 9.92974 9.14216 11.8618 10.6007 13.7928C10.5776 13.7461 10.5543 13.6991 10.5543 13.6524C11.2746 12.9254 12.3683 11.8719 13.3967 10.8825C11.4341 9.35004 9.51071 8.12741 8.15541 7.9033C8.15264 8.03813 8.14938 8.17833 8.14567 8.32406ZM10.5426 18.2207C8.28569 21.1248 7.73484 23.9097 7.95036 24.3825C9.34897 24.2536 11.4416 22.9192 13.5626 21.2463C12.3384 20.0289 11.009 18.6908 10.5426 18.2207ZM24.2163 24.1436C24.4237 22.5141 22.8941 20.3007 21.3385 18.3803C20.3032 19.5181 19.2268 20.5917 18.1396 21.5802C20.9652 23.7559 23.6765 24.3298 24.2163 24.1436ZM21.4723 13.7641C23.0655 11.9006 24.6511 9.84835 24.2988 8.14848C24.1405 8.14534 23.9745 8.14149 23.8006 8.13699C22.1969 8.09549 20.2645 9.15938 18.3277 10.6498C19.3977 11.6183 20.4556 12.6637 21.4723 13.7641ZM15.7567 12.8436C14.5879 13.9252 13.4737 15.0547 12.4924 16.0677C13.5703 17.2666 14.7138 18.4122 15.7521 19.4195C17.0745 18.2621 18.3135 17.0891 19.2931 16.1295C18.3146 15.1711 17.0774 13.9997 15.7567 12.8436Z" fill="white"/>
</g>
<path d="M26.0375 14.1204L25.8754 12.1819L24.8784 12.2659L25.0414 14.2044C25.0518 14.3274 25.0164 14.4508 24.9418 14.5491L16.0913 26.223C15.9245 26.4426 15.611 26.486 15.3911 26.3196L12.9497 24.4681L12.3461 25.265L14.7866 27.1165C15.4466 27.6165 16.3877 27.4871 16.8881 26.8275L25.7387 15.1526C25.9624 14.8575 26.0686 14.4894 26.0375 14.1204Z" fill="white"/>
<path d="M21.9116 5.68292L22.2993 6.6048C23.51 6.09501 24.8341 6.62146 25.2895 7.70245C25.7445 8.78358 25.1964 10.0988 23.9858 10.6087C23.4009 10.8548 22.7845 10.8578 22.2543 10.6722C22.2317 10.5284 22.1741 10.388 22.0786 10.265C21.7768 9.87656 21.217 9.80602 20.8286 10.1077C20.4402 10.4094 20.3698 10.9692 20.6713 11.3577C20.949 11.7153 21.4445 11.8018 21.8246 11.5784C22.3207 11.7703 22.8668 11.8422 23.4164 11.7796L23.058 13.7845C23.0362 13.9059 22.9699 14.0154 22.8725 14.0911L11.3022 23.0765C11.0841 23.2459 10.7694 23.2067 10.6 22.9886L6.90961 18.2366C6.74033 18.0185 6.78042 17.7038 6.99848 17.5345L18.5678 8.54913C18.6653 8.47342 18.7885 8.43577 18.9116 8.44464L24.5053 8.85089L24.5776 7.85382L18.9838 7.44757C18.6143 7.42078 18.2471 7.53185 17.9545 7.75909L6.3852 16.7454C5.73091 17.2536 5.61241 18.1956 6.12055 18.8499L9.81098 23.6019C10.3192 24.2559 11.2613 24.3746 11.9155 23.8665L23.4858 14.8812C23.7784 14.6539 23.9769 14.3259 24.0424 13.9612L24.4868 11.4788C26.0812 10.7402 26.8857 8.9153 26.2114 7.31378C25.521 5.67502 23.5809 4.98005 21.9116 5.68292Z" fill="white"/>
<path d="M19.1743 13.7864L17.9477 12.2073L10.2094 18.2171L11.436 19.7962L19.1743 13.7864Z" fill="white"/>
</g>
<defs>
<clipPath id="clip0_4077_21629">
<rect width="32" height="32" fill="white"/>
</clipPath>
</defs>
</svg>
